<svg width="138" height="40" viewBox="0 0 138 40" fill="none" xmlns="http://www.w3.org/2000/svg">
<mask id="path-1-inside-1_1_2395" fill="white">
<path d="M0 20C0 8.95431 8.9543 0 20 0H118C129.046 0 138 8.95431 138 20C138 31.0457 129.046 40 118 40H20C8.95431 40 0 31.0457 0 20Z"/>
</mask>
<path d="M20 1H118V-1H20V1ZM118 39H20V41H118V39ZM20 39C9.50659 39 1 30.4934 1 20H-1C-1 31.598 8.40202 41 20 41V39ZM137 20C137 30.4934 128.493 39 118 39V41C129.598 41 139 31.598 139 20H137ZM118 1C128.493 1 137 9.50659 137 20H139C139 8.40202 129.598 -1 118 -1V1ZM20 -1C8.40202 -1 -1 8.40202 -1 20H1C1 9.50659 9.50659 1 20 1V-1Z" fill="#D85151" mask="url(#path-1-inside-1_1_2395)"/>
<path fill-rule="evenodd" clip-rule="evenodd" d="M27.4165 25.3333C27.4165 25.0112 27.6777 24.75 27.9998 24.75H33.9999C34.322 24.75 34.5832 25.0112 34.5832 25.3333C34.5832 25.6555 34.322 25.9167 33.9999 25.9167H27.9998C27.6777 25.9167 27.4165 25.6555 27.4165 25.3333Z" fill="#D85151"/>
<path fill-rule="evenodd" clip-rule="evenodd" d="M31.9998 14.5025C31.7795 14.5025 31.5681 14.59 31.4123 14.7458L23.1932 22.9649L22.8016 24.5316L24.3683 24.1399L32.5874 15.9209C32.6645 15.8437 32.7257 15.7521 32.7675 15.6513C32.8092 15.5505 32.8307 15.4424 32.8307 15.3333C32.8307 15.2242 32.8092 15.1162 32.7675 15.0154C32.7257 14.9146 32.6645 14.823 32.5874 14.7458C32.5102 14.6687 32.4186 14.6075 32.3178 14.5657C32.217 14.5239 32.109 14.5025 31.9998 14.5025ZM30.5874 13.9209C30.962 13.5462 31.4701 13.3358 31.9998 13.3358C32.2622 13.3358 32.5219 13.3875 32.7643 13.4878C33.0066 13.5882 33.2268 13.7354 33.4123 13.9209C33.5978 14.1063 33.745 14.3265 33.8453 14.5689C33.9457 14.8113 33.9974 15.071 33.9974 15.3333C33.9974 15.5957 33.9457 15.8554 33.8453 16.0978C33.745 16.3401 33.5978 16.5603 33.4123 16.7458L25.079 25.0791C25.0042 25.1539 24.9106 25.2069 24.808 25.2326L22.1413 25.8992C21.9425 25.9489 21.7323 25.8907 21.5874 25.7458C21.4425 25.6009 21.3842 25.3906 21.4339 25.1919L22.1006 22.5252C22.1262 22.4226 22.1793 22.3289 22.254 22.2542L30.5874 13.9209Z" fill="#D85151"/>
<path d="M43.9787 25H42.348L46.0121 14.8182H47.7869L51.451 25H49.8203L46.9418 16.6676H46.8622L43.9787 25ZM44.2521 21.0128H49.5419V22.3054H44.2521V21.0128ZM55.5376 25.1491C54.9212 25.1491 54.371 24.9917 53.8871 24.6768C53.4065 24.3587 53.0286 23.9062 52.7536 23.3196C52.4818 22.7296 52.3459 22.022 52.3459 21.1967C52.3459 20.3714 52.4834 19.6655 52.7585 19.0788C53.0369 18.4922 53.4181 18.0431 53.902 17.7315C54.3859 17.42 54.9344 17.2642 55.5476 17.2642C56.0215 17.2642 56.4027 17.3438 56.6911 17.5028C56.9827 17.6586 57.2081 17.8409 57.3672 18.0497C57.5296 18.2585 57.6555 18.4425 57.745 18.6016H57.8345V14.8182H59.321V25H57.8693V23.8118H57.745C57.6555 23.9742 57.5263 24.1598 57.3572 24.3686C57.1915 24.5774 56.9628 24.7597 56.6712 24.9155C56.3795 25.0713 56.0017 25.1491 55.5376 25.1491ZM55.8658 23.8814C56.2933 23.8814 56.6546 23.7687 56.9496 23.5433C57.2479 23.3146 57.4732 22.9981 57.6257 22.5938C57.7815 22.1894 57.8594 21.7187 57.8594 21.1818C57.8594 20.6515 57.7831 20.1875 57.6307 19.7898C57.4782 19.392 57.2545 19.0821 56.9595 18.8601C56.6645 18.638 56.3 18.527 55.8658 18.527C55.4183 18.527 55.0455 18.643 54.7472 18.875C54.4489 19.107 54.2235 19.4235 54.071 19.8246C53.9219 20.2256 53.8473 20.678 53.8473 21.1818C53.8473 21.6922 53.9235 22.1513 54.076 22.5589C54.2285 22.9666 54.4538 23.2898 54.7521 23.5284C55.0537 23.7637 55.425 23.8814 55.8658 23.8814ZM64.3013 25.1491C63.6848 25.1491 63.1346 24.9917 62.6507 24.6768C62.1702 24.3587 61.7923 23.9062 61.5172 23.3196C61.2454 22.7296 61.1096 22.022 61.1096 21.1967C61.1096 20.3714 61.2471 19.6655 61.5222 19.0788C61.8006 18.4922 62.1818 18.0431 62.6657 17.7315C63.1496 17.42 63.6981 17.2642 64.3113 17.2642C64.7852 17.2642 65.1664 17.3438 65.4547 17.5028C65.7464 17.6586 65.9718 17.8409 66.1309 18.0497C66.2933 18.2585 66.4192 18.4425 66.5087 18.6016H66.5982V14.8182H68.0847V25H66.633V23.8118H66.5087C66.4192 23.9742 66.29 24.1598 66.1209 24.3686C65.9552 24.5774 65.7265 24.7597 65.4348 24.9155C65.1432 25.0713 64.7653 25.1491 64.3013 25.1491ZM64.6294 23.8814C65.057 23.8814 65.4183 23.7687 65.7132 23.5433C66.0115 23.3146 66.2369 22.9981 66.3894 22.5938C66.5452 22.1894 66.623 21.7187 66.623 21.1818C66.623 20.6515 66.5468 20.1875 66.3944 19.7898C66.2419 19.392 66.0182 19.0821 65.7232 18.8601C65.4282 18.638 65.0636 18.527 64.6294 18.527C64.182 18.527 63.8091 18.643 63.5108 18.875C63.2125 19.107 62.9872 19.4235 62.8347 19.8246C62.6855 20.2256 62.611 20.678 62.611 21.1818C62.611 21.6922 62.6872 22.1513 62.8397 22.5589C62.9921 22.9666 63.2175 23.2898 63.5158 23.5284C63.8174 23.7637 64.1886 23.8814 64.6294 23.8814ZM73.9114 25V17.3636H75.3482V18.5767H75.4277C75.5669 18.1657 75.8122 17.8426 76.1635 17.6072C76.5182 17.3686 76.9192 17.2493 77.3667 17.2493C77.4595 17.2493 77.5688 17.2526 77.6948 17.2592C77.824 17.2659 77.9251 17.2741 77.998 17.2841V18.706C77.9384 18.6894 77.8323 18.6712 77.6799 18.6513C77.5274 18.6281 77.3749 18.6165 77.2225 18.6165C76.8712 18.6165 76.5579 18.6911 76.2828 18.8402C76.0111 18.986 75.7956 19.1899 75.6365 19.4517C75.4775 19.7102 75.3979 20.0052 75.3979 20.3366V25H73.9114ZM82.3022 25.1541C81.5498 25.1541 80.9019 24.9934 80.3583 24.6719C79.8181 24.3471 79.4004 23.8913 79.1055 23.3047C78.8138 22.7147 78.668 22.0237 78.668 21.2315C78.668 20.4493 78.8138 19.7599 79.1055 19.1634C79.4004 18.5668 79.8114 18.1011 80.3384 17.7663C80.8687 17.4316 81.4885 17.2642 82.1978 17.2642C82.6287 17.2642 83.0463 17.3355 83.4506 17.478C83.855 17.6205 84.2179 17.8442 84.5394 18.1491C84.8609 18.4541 85.1145 18.8501 85.3001 19.3374C85.4857 19.8213 85.5785 20.4096 85.5785 21.1023V21.6293H79.5082V20.5156H84.1218C84.1218 20.1245 84.0423 19.7782 83.8832 19.4766C83.7241 19.1716 83.5004 18.9313 83.212 18.7557C82.927 18.58 82.5922 18.4922 82.2077 18.4922C81.7901 18.4922 81.4255 18.5949 81.114 18.8004C80.8058 19.0026 80.5671 19.2678 80.3981 19.5959C80.2324 19.9207 80.1495 20.2737 80.1495 20.6548V21.5249C80.1495 22.0353 80.239 22.4695 80.418 22.8274C80.6003 23.1854 80.8538 23.4588 81.1786 23.6477C81.5034 23.8333 81.8829 23.9261 82.3171 23.9261C82.5988 23.9261 82.8557 23.8864 83.0877 23.8068C83.3197 23.724 83.5202 23.6013 83.6893 23.4389C83.8583 23.2765 83.9876 23.076 84.0771 22.8374L85.484 23.0909C85.3713 23.5052 85.1692 23.8681 84.8775 24.1797C84.5891 24.4879 84.2262 24.7282 83.7887 24.9006C83.3545 25.0696 82.859 25.1541 82.3022 25.1541ZM93.5417 17.3636L90.7725 25H89.1816L86.4075 17.3636H88.0034L89.9373 23.2401H90.0169L91.9458 17.3636H93.5417ZM94.9387 25V17.3636H96.4252V25H94.9387ZM95.6895 16.1854C95.4309 16.1854 95.2089 16.0992 95.0233 15.9268C94.841 15.7512 94.7498 15.5424 94.7498 15.3004C94.7498 15.0552 94.841 14.8464 95.0233 14.674C95.2089 14.4983 95.4309 14.4105 95.6895 14.4105C95.948 14.4105 96.1684 14.4983 96.3507 14.674C96.5363 14.8464 96.6291 15.0552 96.6291 15.3004C96.6291 15.5424 96.5363 15.7512 96.3507 15.9268C96.1684 16.0992 95.948 16.1854 95.6895 16.1854ZM101.716 25.1541C100.964 25.1541 100.316 24.9934 99.7724 24.6719C99.2321 24.3471 98.8145 23.8913 98.5195 23.3047C98.2279 22.7147 98.082 22.0237 98.082 21.2315C98.082 20.4493 98.2279 19.7599 98.5195 19.1634C98.8145 18.5668 99.2255 18.1011 99.7525 17.7663C100.283 17.4316 100.903 17.2642 101.612 17.2642C102.043 17.2642 102.46 17.3355 102.865 17.478C103.269 17.6205 103.632 17.8442 103.953 18.1491C104.275 18.4541 104.529 18.8501 104.714 19.3374C104.9 19.8213 104.993 20.4096 104.993 21.1023V21.6293H98.9222V20.5156H103.536C103.536 20.1245 103.456 19.7782 103.297 19.4766C103.138 19.1716 102.914 18.9313 102.626 18.7557C102.341 18.58 102.006 18.4922 101.622 18.4922C101.204 18.4922 100.84 18.5949 100.528 18.8004C100.22 19.0026 99.9812 19.2678 99.8121 19.5959C99.6464 19.9207 99.5636 20.2737 99.5636 20.6548V21.5249C99.5636 22.0353 99.6531 22.4695 99.832 22.8274C100.014 23.1854 100.268 23.4588 100.593 23.6477C100.917 23.8333 101.297 23.9261 101.731 23.9261C102.013 23.9261 102.27 23.8864 102.502 23.8068C102.734 23.724 102.934 23.6013 103.103 23.4389C103.272 23.2765 103.402 23.076 103.491 22.8374L104.898 23.0909C104.785 23.5052 104.583 23.8681 104.292 24.1797C104.003 24.4879 103.64 24.7282 103.203 24.9006C102.769 25.0696 102.273 25.1541 101.716 25.1541ZM108.284 25L106.037 17.3636H107.573L109.069 22.9716H109.144L110.645 17.3636H112.181L113.673 22.9467H113.748L115.234 17.3636H116.77L114.528 25H113.012L111.461 19.4865H111.346L109.795 25H108.284Z" fill="#D85151"/>
</svg>
