<svg width="16" height="16" viewBox="0 0 16 16" fill="none" xmlns="http://www.w3.org/2000/svg">
            <path fill-rule="evenodd" clip-rule="evenodd" d="M4.66667 2.58333C4.46775 2.58333 4.27699 2.66235 4.13634 2.803C3.99568 2.94365 3.91667 3.13442 3.91667 3.33333V12.8665L7.66094 10.192C7.86377 10.0471 8.13623 10.0471 8.33906 10.192L12.0833 12.8665V3.33333C12.0833 3.13442 12.0043 2.94365 11.8637 2.803C11.723 2.66235 11.5322 2.58333 11.3333 2.58333H4.66667ZM3.31138 1.97804C3.67082 1.6186 4.15834 1.41666 4.66667 1.41666H11.3333C11.8417 1.41666 12.3292 1.6186 12.6886 1.97804C13.0481 2.33749 13.25 2.825 13.25 3.33333V14C13.25 14.2185 13.1279 14.4187 12.9336 14.5187C12.7393 14.6187 12.5054 14.6017 12.3276 14.4747L8 11.3835L3.67239 14.4747C3.49458 14.6017 3.2607 14.6187 3.06641 14.5187C2.87212 14.4187 2.75 14.2185 2.75 14V3.33333C2.75 2.825 2.95193 2.33749 3.31138 1.97804Z" fill="#9CA3AF"/>
            </svg>