<svg width="16" height="16" viewBox="0 0 16 16" fill="none" xmlns="http://www.w3.org/2000/svg">
<path fill-rule="evenodd" clip-rule="evenodd" d="M0.59375 1.25C0.59375 0.887563 0.887563 0.59375 1.25 0.59375H6.5C6.86244 0.59375 7.15625 0.887563 7.15625 1.25V6.5C7.15625 6.86244 6.86244 7.15625 6.5 7.15625H1.25C0.887563 7.15625 0.59375 6.86244 0.59375 6.5V1.25ZM1.90625 1.90625V5.84375H5.84375V1.90625H1.90625Z" fill="#4E5562"/>
<path fill-rule="evenodd" clip-rule="evenodd" d="M8.84375 1.25C8.84375 0.887563 9.13756 0.59375 9.5 0.59375H14.75C15.1124 0.59375 15.4062 0.887563 15.4062 1.25V6.5C15.4062 6.86244 15.1124 7.15625 14.75 7.15625H9.5C9.13756 7.15625 8.84375 6.86244 8.84375 6.5V1.25ZM10.1562 1.90625V5.84375H14.0938V1.90625H10.1562Z" fill="#4E5562"/>
<path fill-rule="evenodd" clip-rule="evenodd" d="M8.84375 9.5C8.84375 9.13756 9.13756 8.84375 9.5 8.84375H14.75C15.1124 8.84375 15.4062 9.13756 15.4062 9.5V14.75C15.4062 15.1124 15.1124 15.4062 14.75 15.4062H9.5C9.13756 15.4062 8.84375 15.1124 8.84375 14.75V9.5ZM10.1562 10.1562V14.0938H14.0938V10.1562H10.1562Z" fill="#4E5562"/>
<path fill-rule="evenodd" clip-rule="evenodd" d="M0.59375 9.5C0.59375 9.13756 0.887563 8.84375 1.25 8.84375H6.5C6.86244 8.84375 7.15625 9.13756 7.15625 9.5V14.75C7.15625 15.1124 6.86244 15.4062 6.5 15.4062H1.25C0.887563 15.4062 0.59375 15.1124 0.59375 14.75V9.5ZM1.90625 10.1562V14.0938H5.84375V10.1562H1.90625Z" fill="#4E5562"/>
</svg>

