<svg width="16" height="16" viewBox="0 0 16 16" fill="none" xmlns="http://www.w3.org/2000/svg">
<path fill-rule="evenodd" clip-rule="evenodd" d="M8 1.91667C4.64027 1.91667 1.91667 4.64027 1.91667 8C1.91667 11.3597 4.64027 14.0833 8 14.0833C11.3597 14.0833 14.0833 11.3597 14.0833 8C14.0833 4.64027 11.3597 1.91667 8 1.91667ZM0.75 8C0.75 3.99594 3.99594 0.75 8 0.75C12.0041 0.75 15.25 3.99594 15.25 8C15.25 12.0041 12.0041 15.25 8 15.25C3.99594 15.25 0.75 12.0041 0.75 8Z" fill="#4E5562"/>
<path fill-rule="evenodd" clip-rule="evenodd" d="M0.75 8C0.75 7.67783 1.01117 7.41667 1.33333 7.41667H14.6667C14.9888 7.41667 15.25 7.67783 15.25 8C15.25 8.32217 14.9888 8.58333 14.6667 8.58333H1.33333C1.01117 8.58333 0.75 8.32217 0.75 8Z" fill="#4E5562"/>
<path fill-rule="evenodd" clip-rule="evenodd" d="M5.9168 8C5.9633 10.1042 6.69848 12.1288 8 13.7677C9.30151 12.1288 10.0367 10.1042 10.0832 8C10.0367 5.89578 9.30151 3.87122 8 2.23225C6.69848 3.87122 5.9633 5.89578 5.9168 8ZM8 1.33333L7.5693 0.93992C5.80641 2.86989 4.80457 5.3745 4.75013 7.98785C4.74996 7.99595 4.74996 8.00405 4.75013 8.01215C4.80457 10.6255 5.80641 13.1301 7.5693 15.0601C7.67982 15.1811 7.83613 15.25 8 15.25C8.16387 15.25 8.32018 15.1811 8.4307 15.0601C10.1936 13.1301 11.1954 10.6255 11.2499 8.01215C11.25 8.00405 11.25 7.99595 11.2499 7.98785C11.1954 5.3745 10.1936 2.86989 8.4307 0.93992L8 1.33333Z" fill="#4E5562"/>
</svg>
