<svg width="16" height="14" viewBox="0 0 16 14" fill="none" xmlns="http://www.w3.org/2000/svg">
<path fill-rule="evenodd" clip-rule="evenodd" d="M9.8905 0.657046C10.4063 0.443339 10.9591 0.333344 11.5174 0.333344C12.0757 0.333344 12.6285 0.443339 13.1442 0.657046C13.66 0.870754 14.1286 1.18398 14.5233 1.57885C14.918 1.97348 15.2312 2.44202 15.4449 2.9577C15.6586 3.47346 15.7686 4.02627 15.7686 4.58456C15.7686 5.14285 15.6586 5.69566 15.4449 6.21143C15.2312 6.72715 14.918 7.19572 14.5232 7.59037C14.5231 7.59041 14.5232 7.59034 14.5232 7.59037L8.62984 13.4837C8.40204 13.7115 8.03269 13.7115 7.80489 13.4837L1.91155 7.59037C1.11436 6.79318 0.666504 5.71196 0.666504 4.58456C0.666504 3.45716 1.11436 2.37594 1.91155 1.57875C2.70874 0.781557 3.78997 0.3337 4.91736 0.3337C6.04476 0.3337 7.12599 0.781558 7.92318 1.57875L8.21736 1.87294L8.51146 1.57885C8.90613 1.18399 9.37473 0.870754 9.8905 0.657046ZM13.6981 2.40361C13.4118 2.11714 13.0718 1.8899 12.6976 1.73485C12.3235 1.57981 11.9224 1.50001 11.5174 1.50001C11.1123 1.50001 10.7113 1.57981 10.3371 1.73485C9.96291 1.8899 9.62294 2.11714 9.33661 2.40361L8.62984 3.11037C8.40204 3.33818 8.03269 3.33818 7.80489 3.11037L7.09822 2.40371C6.51982 1.82531 5.73534 1.50037 4.91736 1.50037C4.09939 1.50037 3.31491 1.82531 2.73651 2.40371C2.15811 2.9821 1.83317 3.76658 1.83317 4.58456C1.83317 5.40254 2.15811 6.18702 2.73651 6.76542L8.21736 12.2463L13.6982 6.76542C13.9847 6.47908 14.212 6.13902 14.3671 5.76484C14.5221 5.39065 14.6019 4.98959 14.6019 4.58456C14.6019 4.17953 14.5221 3.77847 14.3671 3.40429C14.212 3.0301 13.9846 2.68994 13.6981 2.40361Z" fill="#333D4C"/>
</svg>
