<svg width="120" height="24" viewBox="0 0 120 24" fill="none" xmlns="http://www.w3.org/2000/svg">
<path fill-rule="evenodd" clip-rule="evenodd" d="M12.3107 3.43368L13.8158 0.75L18.0829 3.28678L16.5783 5.96987C16.3141 6.44056 16.7096 7.0129 17.2279 6.91007L20.1114 6.33713L21.0446 11.3184L18.1611 11.8908C13.4968 12.8169 9.93579 7.66928 12.3107 3.43368Z" fill="#9CA3AF"/>
<path fill-rule="evenodd" clip-rule="evenodd" d="M9.86449 20.5663L8.22251 23.25L3.56683 20.7138L5.2088 18.0301C5.4971 17.5594 5.06559 16.9871 4.49958 17.0899L1.35449 17.6623L0.336426 12.6816L3.48214 12.1092C8.57058 11.1831 12.4548 16.3307 9.86449 20.5663Z" fill="#9CA3AF"/>
<path fill-rule="evenodd" clip-rule="evenodd" d="M9.86329 3.43368L8.22193 0.75L3.56622 3.28678L5.2082 5.96987C5.49588 6.44056 5.06499 7.0129 4.49898 6.91007L1.35325 6.33713L0.336426 11.3184L3.48154 11.8908C8.57063 12.8169 12.4555 7.66928 9.86391 3.43368H9.86329Z" fill="#9CA3AF"/>
<path fill-rule="evenodd" clip-rule="evenodd" d="M12.3117 20.5663L13.8157 23.25L18.0834 20.7138L16.5782 18.0301C16.3145 17.5594 16.7095 16.9871 17.2284 17.0899L20.1114 17.6623L21.0446 12.6816L18.161 12.1092C13.4966 11.1831 9.93609 16.3307 12.3105 20.5663H12.3117Z" fill="#9CA3AF"/>
<path d="M104.113 18.062V12.9137C104.113 12.2002 104.286 11.56 104.632 10.9937C104.99 10.4159 105.497 9.96282 106.154 9.63393C106.811 9.30565 107.592 9.14151 108.499 9.14151C108.922 9.13759 109.344 9.18895 109.752 9.29414C110.135 9.38499 110.481 9.51522 110.791 9.68481C111.113 9.8435 111.387 10.0361 111.615 10.2626H111.65C111.893 10.0329 112.171 9.83819 112.474 9.68481C112.806 9.51109 113.161 9.37974 113.53 9.29414C113.945 9.18971 114.373 9.13838 114.802 9.14151C115.708 9.14151 116.49 9.30504 117.147 9.63393C117.803 9.96282 118.31 10.4153 118.668 10.9937C119.027 11.56 119.205 12.1996 119.205 12.9137V18.062H116.412V12.9985C116.412 12.7156 116.335 12.4606 116.18 12.2341C116.038 11.9972 115.834 11.7984 115.589 11.6563C115.33 11.5069 115.032 11.4302 114.729 11.4352C114.407 11.4352 114.115 11.5091 113.853 11.6563C113.607 11.7982 113.404 11.9971 113.262 12.2341C113.117 12.4651 113.042 12.7297 113.047 12.9985V18.062H110.272V12.9985C110.272 12.7156 110.194 12.4606 110.039 12.2341C109.893 11.9938 109.683 11.7944 109.43 11.6563C109.171 11.5069 108.873 11.4302 108.571 11.4352C108.248 11.4352 107.956 11.5091 107.694 11.6563C107.448 11.7982 107.245 11.9971 107.103 12.2341C106.958 12.4653 106.884 12.7298 106.888 12.9985V18.062H104.113ZM98.0435 18.2661C97.101 18.2661 96.2829 18.0965 95.5911 17.7561C94.9108 17.4048 94.3856 16.9348 94.0155 16.3461C93.6454 15.7459 93.4603 15.0826 93.4603 14.3576V9.34502H96.2356V14.2898C96.2356 14.5957 96.3129 14.8791 96.4679 15.1396C96.623 15.3885 96.8323 15.5926 97.0946 15.7513C97.369 15.8985 97.6798 15.9724 98.0257 15.9724C98.3601 15.9724 98.6581 15.8985 98.921 15.7513C99.1954 15.5926 99.4105 15.3885 99.5655 15.1396C99.7206 14.8791 99.7985 14.5957 99.7985 14.2898V9.34502H102.573V14.3576C102.573 15.0826 102.394 15.7459 102.036 16.3461C101.678 16.9348 101.159 17.4054 100.479 17.7561C99.81 18.0959 98.9982 18.2661 98.0435 18.2661ZM84.5216 18.062V15.9724H88.9441C89.0634 15.9724 89.1706 15.9494 89.2663 15.904C89.3614 15.8476 89.4393 15.7737 89.4986 15.6835C89.5571 15.5942 89.5881 15.4912 89.5881 15.3861C89.5881 15.281 89.5571 15.178 89.4986 15.0887C89.4429 15.0014 89.3624 14.9306 89.2663 14.8846C89.1696 14.8277 89.0578 14.7983 88.9441 14.7998H87.3327C86.7354 14.7998 86.1923 14.7089 85.7035 14.5278C85.2391 14.3453 84.8408 14.0382 84.5574 13.6442C84.283 13.2365 84.1458 12.7096 84.1458 12.0639C84.1458 11.5655 84.2708 11.1124 84.5216 10.7048C84.7826 10.2984 85.1454 9.95964 85.5778 9.71872C86.029 9.47016 86.5423 9.3411 87.0641 9.34502H91.4858V11.4522H87.4935C87.335 11.4492 87.1812 11.504 87.0641 11.6054C87.0117 11.654 86.9704 11.7122 86.9426 11.7764C86.9149 11.8407 86.9012 11.9097 86.9026 11.9791C86.9026 12.1378 86.9568 12.2735 87.0641 12.3868C87.1812 12.4882 87.335 12.543 87.4935 12.54H89.0691C89.7373 12.54 90.3104 12.6363 90.7877 12.8283C91.2772 13.01 91.653 13.3044 91.916 13.7126C92.1904 14.1202 92.3276 14.6466 92.3276 15.2922C92.3276 15.8022 92.1904 16.2668 91.916 16.6853C91.6555 17.1025 91.2852 17.4481 90.8413 17.6883C90.3997 17.9378 89.8987 18.062 89.3378 18.062H84.5216ZM78.4757 9.14151C79.2518 9.14151 79.9378 9.26022 80.5344 9.49826C81.1205 9.71034 81.6474 10.0475 82.0743 10.4837C82.5094 10.9111 82.8449 11.4206 83.059 11.9791C83.2855 12.5454 83.3991 13.1741 83.3991 13.8652C83.3991 14.7259 83.2083 15.4909 82.8261 16.1589C82.473 16.7992 81.9403 17.3344 81.2868 17.7053C80.6302 18.079 79.8663 18.2661 78.9952 18.2661C78.6251 18.2661 78.2728 18.2207 77.9384 18.1304C77.6217 18.0421 77.3203 17.9102 77.0437 17.7392C76.783 17.5713 76.5582 17.3579 76.3813 17.1105H76.3271V21.75H73.5524V13.8646C73.5524 12.9016 73.7553 12.0688 74.1612 11.3668C74.5546 10.6758 75.1519 10.1088 75.8797 9.73508C76.62 9.33896 77.4853 9.1409 78.4757 9.1409V9.14151ZM78.4757 11.4183C78.0463 11.4183 77.6704 11.52 77.3481 11.7241C77.0373 11.9167 76.7987 12.1887 76.6315 12.54C76.4649 12.8792 76.3813 13.265 76.3813 13.695C76.3813 14.1257 76.4649 14.5109 76.6315 14.8507C76.7987 15.1905 77.0373 15.4624 77.3481 15.6665C77.6704 15.8591 78.0463 15.9554 78.4757 15.9554C78.9052 15.9554 79.2754 15.8585 79.5855 15.6665C79.8976 15.461 80.1453 15.179 80.3022 14.8507C80.4808 14.5109 80.5702 14.1257 80.5702 13.695C80.5702 13.265 80.4808 12.8798 80.3022 12.54C80.135 12.1887 79.8963 11.9161 79.5855 11.7241C79.2754 11.52 78.9052 11.4183 78.4757 11.4183ZM69.3354 18.062V9.34502H72.1287V18.062H69.3354ZM70.7317 8.35957C70.2901 8.35957 69.9085 8.20694 69.5862 7.90107C69.264 7.5952 69.1025 7.2324 69.1025 6.81327C69.1025 6.39413 69.264 6.03194 69.5862 5.72607C69.9085 5.40869 70.2901 5.25 70.7317 5.25C71.1733 5.25 71.5556 5.40869 71.8778 5.72607C72.2001 6.03194 72.3609 6.39413 72.3609 6.81327C72.3609 7.2324 72.2001 7.5946 71.8778 7.90107C71.5556 8.20694 71.1733 8.35957 70.7317 8.35957ZM63.2653 18.2661C62.3227 18.2661 61.4753 18.0681 60.7229 17.6713C59.9848 17.2873 59.3672 16.7245 58.9329 16.0402C58.5034 15.3491 58.2883 14.5733 58.2883 13.712C58.2883 12.8398 58.5034 12.0639 58.9329 11.3844C59.3672 10.7001 59.9848 10.1372 60.7229 9.75325C61.4753 9.34502 62.3227 9.14151 63.2653 9.14151C64.2085 9.14151 65.0496 9.34502 65.7898 9.75325C66.5253 10.1346 67.1378 10.6984 67.562 11.3844C68.0036 12.0639 68.2244 12.8398 68.2244 13.712C68.2244 14.5733 68.0036 15.3491 67.562 16.0402C67.1378 16.7262 66.5253 17.29 65.7898 17.6713C65.0381 18.0681 64.1964 18.2661 63.2653 18.2661ZM63.2653 15.9724C63.7069 15.9724 64.0892 15.87 64.4114 15.6665C64.7338 15.4626 64.9932 15.1811 65.1632 14.8507C65.3425 14.5109 65.4318 14.1257 65.4318 13.695C65.4318 13.2759 65.3425 12.8967 65.1632 12.5563C64.9931 12.2262 64.7337 11.9448 64.4114 11.7411C64.0892 11.537 63.7069 11.4352 63.2653 11.4352C62.8237 11.4352 62.4357 11.537 62.1019 11.7411C61.7794 11.945 61.5198 12.2266 61.3495 12.557C61.1672 12.9113 61.0754 13.3014 61.0815 13.6956C61.0815 14.1257 61.1709 14.5109 61.3495 14.8507C61.5198 15.181 61.7795 15.4626 62.1019 15.6665C62.4357 15.87 62.8237 15.9724 63.2653 15.9724ZM49.2699 21.512V19.2516H53.8525C54.0318 19.2516 54.1811 19.1952 54.3005 19.082C54.3587 19.0332 54.4048 18.9728 54.4357 18.9052C54.4666 18.8376 54.4814 18.7644 54.4792 18.6907V16.7707H54.4256C54.1989 17.0209 53.9403 17.2435 53.6559 17.4333C53.393 17.615 53.0944 17.7507 52.7606 17.8415C52.4054 17.9363 52.0377 17.982 51.6687 17.9772C50.857 17.9772 50.1288 17.7955 49.4843 17.4333C48.8519 17.0596 48.3503 16.5442 47.9802 15.887C47.6228 15.2304 47.4435 14.4824 47.4435 13.6442C47.4435 12.8174 47.6285 12.0639 47.9987 11.3844C48.3803 10.7048 48.9355 10.1609 49.6636 9.75325C50.3911 9.34502 51.2807 9.14151 52.3311 9.14151C53.3337 9.14151 54.199 9.33957 54.9271 9.73629C55.6583 10.113 56.2561 10.686 56.6457 11.3837C57.0516 12.0863 57.2545 12.9137 57.2545 13.8652V18.9626C57.2545 19.744 57.0101 20.3618 56.5206 20.8148C56.0433 21.2794 55.3809 21.5114 54.5334 21.5114L49.2699 21.512ZM52.349 15.7683C52.7785 15.7683 53.1486 15.6774 53.4594 15.4963C53.766 15.3074 54.0132 15.0433 54.1748 14.732C54.3445 14.4043 54.4304 14.0432 54.4256 13.6781C54.4256 13.2704 54.3426 12.8967 54.1754 12.557C54.0082 12.2172 53.7695 11.9507 53.4587 11.7581C53.1486 11.5539 52.7785 11.4522 52.3484 11.4522C51.931 11.4522 51.5609 11.5485 51.2386 11.7411C50.9285 11.9337 50.6898 12.1941 50.5226 12.5224C50.356 12.8513 50.2724 13.219 50.2724 13.6272C50.2724 14.0239 50.3554 14.3861 50.5226 14.715C50.6898 15.0318 50.9285 15.2868 51.2392 15.4794C51.5609 15.672 51.931 15.7683 52.349 15.7683ZM41.8028 18.2661C40.8603 18.2661 40.0128 18.0681 39.261 17.6713C38.5227 17.2875 37.9048 16.7246 37.4704 16.0402C37.0409 15.3491 36.8258 14.5733 36.8258 13.712C36.8258 12.8398 37.0409 12.0639 37.4704 11.3844C37.9048 10.6999 38.5227 10.1371 39.261 9.75325C40.0128 9.34502 40.8603 9.14151 41.8028 9.14151C42.746 9.14151 43.5871 9.34502 44.3274 9.75325C45.0628 10.1346 45.6753 10.6984 46.0995 11.3844C46.5411 12.0639 46.7619 12.8398 46.7619 13.712C46.7619 14.5733 46.5411 15.3491 46.0995 16.0402C45.6753 16.7262 45.0628 17.29 44.3274 17.6713C43.5756 18.0681 42.7339 18.2661 41.8028 18.2661ZM41.8028 15.9724C42.2444 15.9724 42.626 15.87 42.9489 15.6665C43.2712 15.4625 43.5306 15.181 43.7007 14.8507C43.8794 14.5109 43.9687 14.1257 43.9687 13.695C43.9687 13.2759 43.8794 12.8967 43.7007 12.5563C43.5305 12.2263 43.2711 11.9449 42.9489 11.7411C42.6267 11.537 42.2444 11.4352 41.8028 11.4352C41.3612 11.4352 40.9732 11.537 40.6395 11.7411C40.317 11.945 40.0573 12.2266 39.8871 12.557C39.7048 12.9113 39.6129 13.3014 39.6191 13.6956C39.6191 14.1257 39.7084 14.5109 39.8871 14.8507C40.0574 15.181 40.317 15.4626 40.6395 15.6665C40.9732 15.87 41.3612 15.9724 41.8028 15.9724ZM32.9159 18.062C32.1399 18.062 31.4596 17.8985 30.875 17.5696C30.3065 17.2567 29.8367 16.8049 29.5145 16.2613C29.1922 15.7174 29.0308 15.1166 29.0308 14.46V6.16761H32.0384V14.6635C32.0384 14.9361 32.1405 15.1735 32.3428 15.3776C32.5457 15.5811 32.7959 15.6835 33.0945 15.6835H36.4066V18.062H32.9159Z" fill="#9CA3AF"/>
</svg>
