<svg width="112" height="24" viewBox="0 0 112 24" fill="none" xmlns="http://www.w3.org/2000/svg">
<path d="M32.478 16.2686C32.478 16.8253 32.365 17.253 32.1391 17.5518C31.9191 17.8507 31.5513 18.0001 31.0358 18.0001C30.5493 18.0001 30.2047 17.8507 30.0019 17.5518C29.805 17.253 29.7065 16.8253 29.7065 16.2686V6.97854C29.7065 6.42189 29.805 5.99415 30.0019 5.69532C30.2047 5.39649 30.5493 5.24707 31.0358 5.24707C31.5513 5.24707 31.9191 5.39649 32.1391 5.69532C32.365 5.99415 32.478 6.42189 32.478 6.97854V16.2686Z" fill="#9CA3AF"/>
<path d="M33.3203 13.5704C33.3203 12.9492 33.4188 12.3633 33.6157 11.8125C33.8184 11.2559 34.1196 10.7695 34.5193 10.3535C34.9247 9.93749 35.4286 9.60644 36.031 9.36036C36.6391 9.11421 37.3515 8.99121 38.1682 8.99121C38.9501 8.99121 39.6423 9.10544 40.2446 9.33396C40.847 9.56249 41.3538 9.88184 41.7649 10.292C42.1762 10.6963 42.489 11.1797 42.7033 11.7422C42.9175 12.2988 43.0247 12.9082 43.0247 13.5704C43.0247 14.1856 42.9233 14.7686 42.7206 15.3194C42.518 15.8643 42.2138 16.3448 41.8084 16.7608C41.403 17.1709 40.8962 17.499 40.2881 17.7452C39.6798 17.9854 38.9732 18.1055 38.1682 18.1055C37.3747 18.1055 36.6739 17.9913 36.0657 17.7628C35.4633 17.5284 34.9566 17.209 34.5453 16.8047C34.1399 16.3946 33.8329 15.9141 33.6244 15.3633C33.4217 14.8067 33.3203 14.209 33.3203 13.5704ZM36.2134 13.5704C36.2134 13.9571 36.2481 14.3262 36.3177 14.6778C36.3871 15.0234 36.4972 15.3282 36.6478 15.5919C36.8041 15.8555 37.0069 16.0665 37.2559 16.2246C37.505 16.377 37.8091 16.4532 38.1682 16.4532C38.4983 16.4532 38.785 16.3829 39.0283 16.2422C39.2774 16.1016 39.48 15.9053 39.6365 15.6534C39.7986 15.4014 39.9203 15.0996 40.0013 14.7481C40.0824 14.3907 40.123 13.9981 40.123 13.5704C40.123 13.1836 40.0853 12.8174 40.01 12.4717C39.9405 12.1202 39.8276 11.8125 39.6712 11.5488C39.5148 11.2793 39.3121 11.0684 39.063 10.916C38.8198 10.7578 38.5215 10.6787 38.1682 10.6787C37.8149 10.6787 37.5137 10.7548 37.2646 10.9073C37.0156 11.0596 36.8129 11.2676 36.6565 11.5313C36.5001 11.795 36.3871 12.1025 36.3177 12.4541C36.2481 12.8057 36.2134 13.1777 36.2134 13.5704Z" fill="#9CA3AF"/>
<path d="M50.1546 16.3038C49.9982 16.5967 49.807 16.8457 49.5811 17.0509C49.3611 17.2559 49.1149 17.4259 48.8427 17.5607C48.5763 17.6895 48.2896 17.7862 47.9826 17.8507C47.6814 17.9093 47.3716 17.9386 47.053 17.9386C46.5201 17.9386 46.0336 17.8419 45.5934 17.6485C45.1532 17.4551 44.7739 17.1768 44.4553 16.8136C44.1425 16.4444 43.8993 15.9932 43.7255 15.46C43.5517 14.9268 43.4648 14.3174 43.4648 13.6319C43.4648 12.9873 43.546 12.3838 43.7082 11.8213C43.8703 11.2588 44.1049 10.7696 44.4119 10.3535C44.7247 9.93752 45.1069 9.60939 45.5587 9.36917C46.0104 9.12894 46.526 9.00879 47.1051 9.00879C47.7654 9.00879 48.3504 9.13772 48.8601 9.39549C49.3756 9.65334 49.8187 10.0752 50.1894 10.6611V10.4327C50.1894 10.0108 50.3023 9.69437 50.5282 9.48339C50.7598 9.26664 51.0784 9.15819 51.4839 9.15819C51.7271 9.15819 51.9327 9.19922 52.1007 9.28127C52.2686 9.35747 52.4018 9.47462 52.5003 9.63287C52.5988 9.78519 52.6683 9.97562 52.7088 10.2041C52.7552 10.4267 52.7783 10.6817 52.7783 10.9688V16.8575C52.7783 17.5724 52.6886 18.211 52.509 18.7735C52.3352 19.336 52.063 19.8107 51.6923 20.1974C51.3216 20.5841 50.8467 20.877 50.2675 21.0763C49.6883 21.2814 48.9991 21.3839 48.1998 21.3839C47.638 21.3839 47.1399 21.3576 46.7054 21.3048C46.2769 21.258 45.9062 21.1847 45.5934 21.0851C45.2807 20.9737 45.0432 20.8507 44.881 20.7159C44.7247 20.5811 44.6464 20.4053 44.6464 20.1886C44.6464 20.0655 44.6638 19.9484 44.6986 19.837C44.7333 19.7257 44.7854 19.6261 44.8549 19.5382C44.9302 19.4561 45.0258 19.3888 45.1417 19.336C45.2633 19.2892 45.4109 19.2657 45.5847 19.2657C45.7701 19.2657 45.9554 19.2774 46.1407 19.3009C46.3319 19.3243 46.5288 19.3478 46.7315 19.3712C46.94 19.4005 47.1572 19.4268 47.3831 19.4503C47.6148 19.4737 47.8638 19.4855 48.1303 19.4855C48.4488 19.4855 48.7326 19.4532 48.9817 19.3888C49.2308 19.3243 49.4421 19.2101 49.6159 19.046C49.7897 18.8819 49.9229 18.6622 50.0156 18.3868C50.1082 18.1172 50.1546 17.7716 50.1546 17.3497V16.3038ZM50.1546 13.5704C50.1546 13.1426 50.1227 12.753 50.059 12.4014C50.0011 12.0498 49.8997 11.751 49.7549 11.5049C49.6101 11.253 49.4161 11.0596 49.1729 10.9248C48.9295 10.7842 48.6255 10.7139 48.2606 10.7139C47.9015 10.7139 47.6032 10.7871 47.3658 10.9336C47.1341 11.0801 46.9488 11.2823 46.8097 11.5401C46.6707 11.7979 46.5723 12.0996 46.5143 12.4454C46.4622 12.7911 46.4362 13.1602 46.4362 13.5528C46.4362 14.4493 46.5925 15.1231 46.9053 15.5743C47.218 16.0255 47.6727 16.2511 48.2693 16.2511C48.5473 16.2452 48.7993 16.1924 49.0251 16.0928C49.2568 15.9874 49.4567 15.8263 49.6246 15.6094C49.7926 15.3926 49.9229 15.1172 50.0156 14.7832C50.1082 14.4493 50.1546 14.045 50.1546 13.5704Z" fill="#9CA3AF"/>
<path d="M53.5776 13.5704C53.5776 12.9492 53.6761 12.3633 53.873 11.8125C54.0758 11.2559 54.3769 10.7695 54.7766 10.3535C55.182 9.93749 55.6859 9.60644 56.2882 9.36036C56.8964 9.11421 57.6088 8.99121 58.4255 8.99121C59.2074 8.99121 59.8995 9.10544 60.5019 9.33396C61.1042 9.56249 61.611 9.88184 62.0223 10.292C62.4335 10.6963 62.7463 11.1797 62.9605 11.7422C63.1749 12.2988 63.282 12.9082 63.282 13.5704C63.282 14.1856 63.1807 14.7686 62.978 15.3194C62.7752 15.8643 62.4712 16.3448 62.0657 16.7608C61.6603 17.1709 61.1535 17.499 60.5453 17.7452C59.9372 17.9854 59.2306 18.1055 58.4255 18.1055C57.632 18.1055 56.9311 17.9913 56.323 17.7628C55.7206 17.5284 55.2138 17.209 54.8026 16.8047C54.3972 16.3946 54.0902 15.9141 53.8817 15.3633C53.679 14.8067 53.5776 14.209 53.5776 13.5704ZM56.4707 13.5704C56.4707 13.9571 56.5054 14.3262 56.575 14.6778C56.6445 15.0234 56.7545 15.3282 56.9051 15.5919C57.0615 15.8555 57.2642 16.0665 57.5133 16.2246C57.7623 16.377 58.0664 16.4532 58.4255 16.4532C58.7556 16.4532 59.0423 16.3829 59.2856 16.2422C59.5346 16.1016 59.7374 15.9053 59.8937 15.6534C60.0559 15.4014 60.1775 15.0996 60.2586 14.7481C60.3397 14.3907 60.3803 13.9981 60.3803 13.5704C60.3803 13.1836 60.3426 12.8174 60.2673 12.4717C60.1978 12.1202 60.0848 11.8125 59.9285 11.5488C59.7721 11.2793 59.5694 11.0684 59.3203 10.916C59.0771 10.7578 58.7788 10.6787 58.4255 10.6787C58.0722 10.6787 57.771 10.7548 57.5219 10.9073C57.2729 11.0596 57.0701 11.2676 56.9138 11.5313C56.7574 11.795 56.6445 12.1025 56.575 12.4541C56.5054 12.8057 56.4707 13.1777 56.4707 13.5704Z" fill="#9CA3AF"/>
<path d="M67.0063 6.02939C67.0063 6.22276 66.9628 6.39561 66.876 6.54796C66.7891 6.69444 66.6762 6.81746 66.5372 6.91713C66.3981 7.01673 66.2359 7.09286 66.0506 7.14558C65.8711 7.19246 65.6858 7.21593 65.4946 7.21593C65.2919 7.21593 65.0979 7.18953 64.9125 7.13681C64.733 7.08408 64.5737 7.00796 64.4347 6.90828C64.2957 6.80283 64.1856 6.67686 64.1045 6.53038C64.0235 6.38389 63.9829 6.2169 63.9829 6.02939C63.9829 5.85947 64.0206 5.7042 64.0958 5.56357C64.1769 5.41709 64.2841 5.29111 64.4173 5.18564C64.5505 5.08017 64.7098 4.99814 64.8952 4.93955C65.0805 4.88095 65.2832 4.85165 65.5033 4.85165C65.6944 4.85165 65.8798 4.87802 66.0593 4.93076C66.2447 4.98349 66.4068 5.05966 66.5458 5.15928C66.6848 5.25888 66.7949 5.38193 66.876 5.52841C66.9628 5.67491 67.0063 5.84189 67.0063 6.02939ZM66.876 16.2687C66.876 16.8254 66.763 17.2531 66.5372 17.5519C66.317 17.8508 65.9492 18.0002 65.4338 18.0002C64.9473 18.0002 64.6026 17.8508 64.3999 17.5519C64.203 17.2531 64.1045 16.8254 64.1045 16.2687V10.8898C64.1045 10.3331 64.203 9.90538 64.3999 9.60658C64.6026 9.30778 64.9473 9.1583 65.4338 9.1583C65.9492 9.1583 66.317 9.30778 66.5372 9.60658C66.763 9.90538 66.876 10.3331 66.876 10.8898V16.2687Z" fill="#9CA3AF"/>
<path d="M70.8739 13.5528C70.8739 13.9454 70.9028 14.3116 70.9608 14.6515C71.0245 14.9913 71.1287 15.2901 71.2735 15.5479C71.4241 15.7999 71.621 15.9991 71.8643 16.1455C72.1133 16.2921 72.4203 16.3653 72.7852 16.3653C73.1211 16.3653 73.402 16.295 73.6281 16.1544C73.8594 16.0079 74.0448 15.8086 74.1842 15.5567C74.3228 15.2989 74.4214 14.9971 74.4792 14.6515C74.543 14.3057 74.5749 13.9307 74.5749 13.5264C74.5749 13.2042 74.5519 12.876 74.5052 12.5421C74.4592 12.2022 74.3725 11.8946 74.245 11.6192C74.1174 11.3438 73.941 11.1182 73.7149 10.9424C73.4888 10.7667 73.1937 10.6788 72.8287 10.6788C72.4637 10.6788 72.1539 10.7373 71.899 10.8546C71.6499 10.9717 71.4473 11.1504 71.2909 11.3907C71.1403 11.6309 71.0331 11.9327 70.9694 12.2959C70.9057 12.6534 70.8739 13.0723 70.8739 13.5528ZM70.8652 10.8897C71.01 10.5792 71.1953 10.3067 71.4212 10.0723C71.6471 9.83792 71.8962 9.64164 72.1684 9.48339C72.4406 9.32522 72.7244 9.20799 73.0198 9.13187C73.3212 9.04981 73.6192 9.00879 73.9143 9.00879C74.4474 9.00879 74.9285 9.12894 75.357 9.36917C75.7855 9.60939 76.1503 9.93752 76.4513 10.3535C76.7582 10.7637 76.9932 11.25 77.1556 11.8125C77.3172 12.3692 77.3987 12.9669 77.3987 13.6055C77.3987 14.2676 77.3113 14.8741 77.1378 15.4249C76.9702 15.9757 76.7293 16.4503 76.4164 16.8487C76.1095 17.2413 75.7388 17.5489 75.3044 17.7716C74.8759 17.9942 74.3984 18.1055 73.8713 18.1055C73.2226 18.1055 72.6433 17.9532 72.1336 17.6485C71.6239 17.3438 71.2011 16.9161 70.8652 16.3653V19.5294C70.8652 20.086 70.7522 20.5138 70.5263 20.8126C70.3062 21.1114 69.9385 21.2609 69.4229 21.2609C68.9365 21.2609 68.5918 21.1114 68.3891 20.8126C68.1922 20.5138 68.0938 20.086 68.0938 19.5294V10.8897C68.0938 10.333 68.1922 9.90527 68.3891 9.60647C68.5918 9.30767 68.9365 9.15819 69.4229 9.15819C69.9385 9.15819 70.3062 9.30767 70.5263 9.60647C70.7522 9.90527 70.8652 10.333 70.8652 10.8897Z" fill="#9CA3AF"/>
<path d="M80.4536 11.5137C80.4536 11.7422 80.5522 11.9209 80.7487 12.0498C80.9459 12.1729 81.218 12.2754 81.5657 12.3575C81.8956 12.4336 82.2344 12.5069 82.5821 12.5771C82.9298 12.6475 83.2686 12.7295 83.5985 12.8233C83.9284 12.9111 84.2383 13.0166 84.5282 13.1396C84.8173 13.2627 85.0724 13.418 85.2926 13.6055C85.5127 13.7871 85.6862 14.0098 85.8137 14.2734C85.9413 14.5313 86.005 14.8419 86.005 15.2051C86.005 15.6621 85.9123 16.0694 85.727 16.4268C85.5417 16.7784 85.2785 17.0772 84.9367 17.3233C84.6009 17.5694 84.1983 17.7598 83.729 17.8946C83.2597 18.0294 82.7415 18.0997 82.1736 18.1055C81.6354 18.1055 81.1164 18.0704 80.6182 18.0001C80.1208 17.9356 79.6774 17.833 79.289 17.6924C78.9071 17.5518 78.6002 17.379 78.3682 17.1738C78.1369 16.9629 78.0212 16.7169 78.0212 16.4356C78.0212 16.1895 78.0991 15.999 78.2555 15.8643C78.4119 15.7296 78.6113 15.6621 78.8553 15.6621C78.9479 15.6621 79.0576 15.6797 79.1852 15.7149C79.3127 15.75 79.4513 15.794 79.6018 15.8467C79.7523 15.8994 79.9117 15.958 80.08 16.0225C80.2535 16.0811 80.4329 16.1338 80.6182 16.1807C80.8503 16.2452 81.0875 16.2979 81.3307 16.3389C81.5798 16.374 81.8348 16.3917 82.0958 16.3917C82.2574 16.3917 82.4168 16.377 82.5732 16.3477C82.7296 16.3125 82.869 16.2627 82.9906 16.1983C83.1181 16.128 83.2219 16.0401 83.3035 15.9346C83.3843 15.8292 83.4332 15.7002 83.451 15.5479C83.468 15.5127 83.4829 15.4776 83.494 15.4424C83.5059 15.4073 83.5118 15.3663 83.5118 15.3194C83.5118 15.1553 83.4362 15.0088 83.2857 14.8799C83.1411 14.751 82.935 14.6484 82.6688 14.5723C82.2225 14.4669 81.797 14.3702 81.3915 14.2823C80.9867 14.1944 80.6101 14.1006 80.2624 14.001C79.9206 13.9014 79.6077 13.7871 79.3238 13.6582C79.0458 13.5293 78.8085 13.3711 78.6113 13.1836C78.4208 12.9961 78.2696 12.7705 78.1598 12.5069C78.0553 12.2432 78.0034 11.9238 78.0034 11.5488C78.0034 11.1446 78.0931 10.7842 78.2725 10.4677C78.4579 10.1455 78.7218 9.87599 79.0636 9.65917C79.4053 9.44234 79.819 9.27831 80.3061 9.16701C80.7924 9.04979 81.3425 8.99121 81.9564 8.99121C83.0566 8.99121 83.8936 9.12599 84.4674 9.39546C85.0464 9.65917 85.3363 10.0048 85.3363 10.4326C85.3363 10.6729 85.2577 10.8574 85.1013 10.9863C84.9448 11.1094 84.7565 11.1709 84.5371 11.1709C84.4207 11.1709 84.2991 11.1504 84.1716 11.1094C84.05 11.0625 83.9025 11.0127 83.729 10.96C83.5548 10.9014 83.3465 10.8516 83.1033 10.8106C82.8661 10.7637 82.5702 10.7402 82.2174 10.7402C81.9505 10.7402 81.7073 10.7519 81.4871 10.7754C81.2729 10.7988 81.0875 10.8398 80.9311 10.8984C80.7806 10.9571 80.662 11.0361 80.5752 11.1358C80.4937 11.2354 80.4536 11.3613 80.4536 11.5137Z" fill="#9CA3AF"/>
<path d="M89.532 14.7393C89.532 15.0147 89.5668 15.2549 89.6365 15.46C89.7114 15.6651 89.813 15.838 89.9405 15.9786C90.068 16.1134 90.2155 16.2159 90.3831 16.2862C90.5573 16.3507 90.7426 16.3829 90.9391 16.3829C91.1711 16.3829 91.3943 16.3478 91.6085 16.2774C91.8228 16.2071 92.0111 16.0987 92.1735 15.9522C92.341 15.8057 92.4745 15.6212 92.5731 15.3985C92.6709 15.1759 92.7206 14.9151 92.7206 14.6163V10.8897C92.7206 10.333 92.8192 9.90528 93.0157 9.60648C93.2188 9.30768 93.5635 9.1582 94.0499 9.1582C94.5651 9.1582 94.9328 9.30768 95.153 9.60648C95.3791 9.90528 95.4918 10.333 95.4918 10.8897V16.2686C95.4918 16.8253 95.3791 17.253 95.153 17.5518C94.9328 17.8507 94.5651 18.0001 94.0499 18.0001C93.5635 18.0001 93.2188 17.8507 93.0157 17.5518C92.8192 17.253 92.7206 16.8253 92.7206 16.2686C92.599 16.5382 92.4396 16.7843 92.2424 17.0069C92.0511 17.2296 91.8258 17.423 91.5648 17.587C91.3098 17.7452 91.0266 17.8682 90.7137 17.9561C90.4068 18.044 90.0732 18.088 89.7143 18.088C89.3266 18.088 88.953 18.0206 88.5934 17.8859C88.2405 17.7452 87.9277 17.5401 87.6556 17.2706C87.3835 16.9952 87.1663 16.6553 87.0039 16.2511C86.8415 15.8468 86.7607 15.3751 86.7607 14.836V10.8897C86.7607 10.333 86.8593 9.90528 87.0558 9.60648C87.2589 9.30768 87.6029 9.1582 88.09 9.1582C88.6053 9.1582 88.973 9.30768 89.1932 9.60648C89.4193 9.90528 89.532 10.333 89.532 10.8897V14.7393Z" fill="#9CA3AF"/>
<path d="M96.7476 10.8897C96.7476 10.333 96.8462 9.90527 97.0434 9.60647C97.2458 9.30767 97.5905 9.15819 98.0768 9.15819C98.5928 9.15819 98.9605 9.30767 99.1807 9.60647C99.4061 9.90527 99.5195 10.333 99.5195 10.8897C99.6352 10.6084 99.7916 10.3535 99.9888 10.125C100.191 9.89065 100.42 9.69144 100.675 9.52734C100.936 9.36332 101.217 9.23732 101.518 9.14942C101.819 9.05566 102.131 9.00879 102.456 9.00879C102.757 9.00879 103.052 9.04981 103.342 9.13187C103.637 9.20799 103.91 9.33399 104.159 9.50979C104.413 9.67967 104.636 9.8965 104.828 10.1602C105.019 10.4238 105.167 10.7403 105.271 11.1094C105.45 10.7169 105.662 10.3858 105.905 10.1162C106.148 9.8467 106.412 9.62987 106.695 9.46584C106.979 9.30174 107.275 9.18459 107.582 9.11424C107.895 9.04396 108.207 9.00879 108.52 9.00879C108.89 9.00879 109.244 9.07622 109.58 9.21092C109.922 9.34569 110.22 9.55082 110.475 9.82622C110.736 10.0957 110.941 10.4385 111.092 10.8546C111.248 11.2647 111.326 11.7452 111.326 12.2959V16.2686C111.326 16.8253 111.213 17.253 110.987 17.5518C110.768 17.8507 110.399 18.0001 109.884 18.0001C109.398 18.0001 109.053 17.8507 108.85 17.5518C108.653 17.253 108.555 16.8253 108.555 16.2686V12.419C108.555 12.1553 108.52 11.9209 108.451 11.7159C108.381 11.5049 108.283 11.3292 108.155 11.1885C108.033 11.0421 107.889 10.9336 107.721 10.8633C107.553 10.7871 107.373 10.749 107.182 10.749C106.944 10.749 106.719 10.7871 106.505 10.8633C106.29 10.9395 106.102 11.0567 105.94 11.2149C105.783 11.3731 105.656 11.5752 105.557 11.8213C105.465 12.0674 105.419 12.3633 105.419 12.709V16.2686C105.419 16.8253 105.305 17.253 105.08 17.5518C104.86 17.8507 104.492 18.0001 103.976 18.0001C103.49 18.0001 103.145 17.8507 102.942 17.5518C102.745 17.253 102.647 16.8253 102.647 16.2686V12.5859C102.647 11.9825 102.522 11.5254 102.274 11.2149C102.03 10.9044 101.697 10.749 101.274 10.749C101.025 10.749 100.793 10.7901 100.579 10.8721C100.365 10.9542 100.179 11.0742 100.023 11.2325C99.8665 11.3907 99.7419 11.5869 99.6493 11.8213C99.5625 12.0557 99.5195 12.3252 99.5195 12.6299V16.2686C99.5195 16.8253 99.4061 17.253 99.1807 17.5518C98.9605 17.8507 98.5928 18.0001 98.0768 18.0001C97.5905 18.0001 97.2458 17.8507 97.0434 17.5518C96.8462 17.253 96.7476 16.8253 96.7476 16.2686V10.8897Z" fill="#9CA3AF"/>
<path d="M11.9826 16.5C9.45031 16.5 7.39746 14.4853 7.39746 12C7.39746 9.51472 9.45031 7.5 11.9826 7.5C14.5149 7.5 16.5678 9.51472 16.5678 12C16.5678 14.4853 14.5149 16.5 11.9826 16.5Z" fill="#9CA3AF"/>
<path d="M3.13652 13.8186C1.82224 14.0419 0.92138 15.2651 1.42589 16.4555C2.13024 18.1174 3.25394 19.5982 4.71074 20.7552C6.79386 22.4097 9.42127 23.2937 12.1205 23.2483C14.8197 23.203 17.4136 22.2311 19.4355 20.5075C20.8495 19.3023 21.9189 17.7846 22.5626 16.1C23.0237 14.8933 22.079 13.7012 20.7575 13.5222C19.436 13.3433 18.2494 14.2701 17.5966 15.3916C17.2428 15.9995 16.7835 16.551 16.2332 17.0201C15.0731 18.0091 13.5848 18.5666 12.0362 18.5927C10.4875 18.6187 8.97999 18.1115 7.78481 17.1622C7.21783 16.7119 6.73883 16.1762 6.36318 15.5805C5.6702 14.4817 4.45079 13.5953 3.13652 13.8186Z" fill="#9CA3AF"/>
<path d="M23.3567 13.1194C23.4152 12.6693 23.4453 12.2107 23.4453 11.7454C23.4453 5.67279 18.3132 0.75 11.9824 0.75C5.65164 0.75 0.519531 5.67279 0.519531 11.7454C0.519531 12.3426 0.569166 12.9286 0.664697 13.5C1.19121 12.8086 2.01296 12.3151 2.90057 12.1649C3.86092 12.0025 4.73373 12.2259 5.4717 12.6435C5.42811 12.3502 5.40555 12.0503 5.40555 11.7454C5.40555 8.26122 8.35013 5.43674 11.9824 5.43674C15.6147 5.43674 18.5593 8.26122 18.5593 11.7454C18.5593 11.9751 18.5464 12.202 18.5215 12.4253C19.2439 11.9831 20.1082 11.7304 21.0741 11.8607C21.9664 11.981 22.8053 12.4464 23.3567 13.1194Z" fill="#9CA3AF"/>
</svg>
