<svg width="197" height="21" viewBox="0 0 197 21" fill="none" xmlns="http://www.w3.org/2000/svg">
<path d="M0.628018 16V1.45455H6.1962C7.24734 1.45455 8.12092 1.62026 8.81694 1.9517C9.5177 2.27841 10.0409 2.72585 10.3865 3.29403C10.7369 3.86222 10.9121 4.50616 10.9121 5.22585C10.9121 5.81771 10.7985 6.32434 10.5712 6.74574C10.3439 7.1624 10.0385 7.50095 9.65501 7.76136C9.27148 8.02178 8.84298 8.20881 8.3695 8.32244V8.46449C8.88559 8.4929 9.38039 8.65151 9.85387 8.94034C10.3321 9.22443 10.7227 9.62689 11.0257 10.1477C11.3288 10.6686 11.4803 11.2983 11.4803 12.0369C11.4803 12.7898 11.298 13.4669 10.9334 14.0682C10.5688 14.6648 10.0196 15.1359 9.28569 15.4815C8.55179 15.8272 7.62849 16 6.5158 16H0.628018ZM3.26296 13.7983H6.09677C7.05321 13.7983 7.74213 13.616 8.16353 13.2514C8.58967 12.8821 8.80273 12.4086 8.80273 11.831C8.80273 11.4001 8.6962 11.0118 8.48313 10.6662C8.27006 10.3158 7.96703 10.0412 7.57404 9.84233C7.18105 9.63873 6.7123 9.53693 6.16779 9.53693H3.26296V13.7983ZM3.26296 7.64062H5.8695C6.32404 7.64062 6.73361 7.55777 7.09819 7.39205C7.46277 7.22159 7.74923 6.98248 7.95756 6.67472C8.17063 6.36222 8.27717 5.9929 8.27717 5.56676C8.27717 5.00331 8.0783 4.5393 7.68058 4.17472C7.28758 3.81013 6.70283 3.62784 5.92631 3.62784H3.26296V7.64062ZM13.6589 16V5.09091H16.2299V16H13.6589ZM14.9515 3.54261C14.5443 3.54261 14.194 3.40767 13.9004 3.13778C13.6068 2.86316 13.46 2.53409 13.46 2.15057C13.46 1.76231 13.6068 1.43324 13.9004 1.16335C14.194 0.88873 14.5443 0.75142 14.9515 0.75142C15.3635 0.75142 15.7138 0.88873 16.0027 1.16335C16.2962 1.43324 16.443 1.76231 16.443 2.15057C16.443 2.53409 16.2962 2.86316 16.0027 3.13778C15.7138 3.40767 15.3635 3.54261 14.9515 3.54261ZM23.6181 20.3182C22.6948 20.3182 21.9017 20.1927 21.2388 19.9418C20.5759 19.6955 20.0433 19.3641 19.6408 18.9474C19.2383 18.5308 18.959 18.0691 18.8027 17.5625L21.1181 17.0014C21.2222 17.2145 21.3738 17.4252 21.5726 17.6335C21.7715 17.8466 22.039 18.0218 22.3752 18.1591C22.7161 18.3011 23.1446 18.3722 23.6607 18.3722C24.3899 18.3722 24.9935 18.1946 25.4718 17.8395C25.95 17.4891 26.1891 16.9115 26.1891 16.1065V14.0398H26.0613C25.9287 14.3049 25.7346 14.5772 25.4789 14.8565C25.2279 15.1359 24.8941 15.3703 24.4775 15.5597C24.0655 15.7491 23.5471 15.8438 22.9221 15.8438C22.084 15.8438 21.324 15.6473 20.6422 15.2543C19.9651 14.8565 19.4254 14.2647 19.0229 13.4787C18.6252 12.688 18.4263 11.6984 18.4263 10.5099C18.4263 9.31203 18.6252 8.30114 19.0229 7.47727C19.4254 6.64867 19.9675 6.02131 20.6493 5.59517C21.3311 5.1643 22.0911 4.94886 22.9292 4.94886C23.5684 4.94886 24.0939 5.05777 24.5059 5.27557C24.9225 5.48864 25.254 5.74669 25.5002 6.04972C25.7464 6.34801 25.9334 6.62973 26.0613 6.89489H26.2033V5.09091H28.7388V16.1776C28.7388 17.1103 28.5163 17.8821 28.0712 18.4929C27.6261 19.1037 27.0177 19.5606 26.2459 19.8636C25.4741 20.1667 24.5982 20.3182 23.6181 20.3182ZM23.6394 13.8267C24.1839 13.8267 24.6479 13.6941 25.0314 13.429C25.415 13.1638 25.7061 12.7827 25.905 12.2855C26.1039 11.7884 26.2033 11.1918 26.2033 10.4957C26.2033 9.80919 26.1039 9.20786 25.905 8.69176C25.7109 8.17566 25.4221 7.77557 25.0385 7.49148C24.6597 7.20265 24.1934 7.05824 23.6394 7.05824C23.0665 7.05824 22.5882 7.20739 22.2047 7.50568C21.8212 7.80398 21.5324 8.21354 21.3382 8.73438C21.1441 9.25047 21.0471 9.83759 21.0471 10.4957C21.0471 11.1634 21.1441 11.7481 21.3382 12.25C21.5371 12.7472 21.8283 13.1354 22.2118 13.4148C22.6001 13.6894 23.0759 13.8267 23.6394 13.8267ZM41.0932 16.2131C40.0042 16.2131 39.0691 15.974 38.2878 15.4957C37.5113 15.0175 36.9123 14.357 36.4909 13.5142C36.0743 12.6667 35.8659 11.6913 35.8659 10.5881C35.8659 9.48011 36.079 8.50237 36.5051 7.65483C36.9313 6.80256 37.5326 6.13968 38.3091 5.66619C39.0904 5.18797 40.0137 4.94886 41.079 4.94886C41.9644 4.94886 42.748 5.11222 43.4299 5.43892C44.1164 5.76089 44.6633 6.2178 45.0705 6.80966C45.4777 7.39678 45.7097 8.08333 45.7665 8.86932H43.3091C43.2097 8.34375 42.973 7.90578 42.5989 7.5554C42.2296 7.20028 41.7348 7.02273 41.1145 7.02273C40.589 7.02273 40.1273 7.16477 39.7296 7.44886C39.3319 7.72822 39.0217 8.13068 38.7992 8.65625C38.5814 9.18182 38.4725 9.81155 38.4725 10.5455C38.4725 11.2888 38.5814 11.928 38.7992 12.4631C39.017 12.9934 39.3224 13.4029 39.7154 13.6918C40.1131 13.9759 40.5795 14.1179 41.1145 14.1179C41.4933 14.1179 41.8319 14.0469 42.1301 13.9048C42.4332 13.758 42.6865 13.5473 42.8901 13.2727C43.0937 12.9981 43.2334 12.6643 43.3091 12.2713H45.7665C45.705 13.0431 45.4777 13.7273 45.0847 14.3239C44.6917 14.9157 44.1567 15.3797 43.4796 15.7159C42.8025 16.0473 42.007 16.2131 41.0932 16.2131ZM52.6362 16.2131C51.5708 16.2131 50.6475 15.9787 49.8663 15.5099C49.085 15.0412 48.479 14.3854 48.0481 13.5426C47.622 12.6998 47.4089 11.715 47.4089 10.5881C47.4089 9.46117 47.622 8.47396 48.0481 7.62642C48.479 6.77888 49.085 6.12074 49.8663 5.65199C50.6475 5.18324 51.5708 4.94886 52.6362 4.94886C53.7015 4.94886 54.6248 5.18324 55.4061 5.65199C56.1873 6.12074 56.791 6.77888 57.2172 7.62642C57.648 8.47396 57.8635 9.46117 57.8635 10.5881C57.8635 11.715 57.648 12.6998 57.2172 13.5426C56.791 14.3854 56.1873 15.0412 55.4061 15.5099C54.6248 15.9787 53.7015 16.2131 52.6362 16.2131ZM52.6504 14.1534C53.228 14.1534 53.711 13.9948 54.0993 13.6776C54.4875 13.3556 54.7763 12.9247 54.9657 12.3849C55.1599 11.8452 55.2569 11.2438 55.2569 10.581C55.2569 9.91335 55.1599 9.30966 54.9657 8.76989C54.7763 8.22538 54.4875 7.79214 54.0993 7.47017C53.711 7.1482 53.228 6.98722 52.6504 6.98722C52.0585 6.98722 51.5661 7.1482 51.1731 7.47017C50.7849 7.79214 50.4937 8.22538 50.2995 8.76989C50.1101 9.30966 50.0154 9.91335 50.0154 10.581C50.0154 11.2438 50.1101 11.8452 50.2995 12.3849C50.4937 12.9247 50.7849 13.3556 51.1731 13.6776C51.5661 13.9948 52.0585 14.1534 52.6504 14.1534ZM60.0456 16V5.09091H62.503V6.9446H62.6309C62.8581 6.3196 63.2346 5.83191 63.7601 5.48153C64.2857 5.12642 64.9131 4.94886 65.6422 4.94886C66.3809 4.94886 67.0035 5.12879 67.5101 5.48864C68.0215 5.84375 68.3813 6.32907 68.5897 6.9446H68.7033C68.9448 6.33854 69.352 5.85559 69.9249 5.49574C70.5025 5.13116 71.1867 4.94886 71.9775 4.94886C72.9812 4.94886 73.8004 5.2661 74.4348 5.90057C75.0693 6.53504 75.3865 7.4607 75.3865 8.67756V16H72.8084V9.07528C72.8084 8.3982 72.6285 7.90341 72.2686 7.59091C71.9088 7.27367 71.4685 7.11506 70.9476 7.11506C70.3274 7.11506 69.842 7.30919 69.4917 7.69744C69.146 8.08097 68.9732 8.58049 68.9732 9.19602V16H66.4519V8.96875C66.4519 8.4053 66.2814 7.95549 65.9405 7.61932C65.6043 7.28314 65.164 7.11506 64.6195 7.11506C64.2502 7.11506 63.914 7.20975 63.611 7.39915C63.3079 7.58381 63.0665 7.84659 62.8865 8.1875C62.7066 8.52367 62.6167 8.91667 62.6167 9.36648V16H60.0456ZM77.9949 20.0909V5.09091H80.5233V6.89489H80.6724C80.805 6.62973 80.992 6.34801 81.2335 6.04972C81.475 5.74669 81.8017 5.48864 82.2136 5.27557C82.6255 5.05777 83.1511 4.94886 83.7903 4.94886C84.6331 4.94886 85.3931 5.1643 86.0701 5.59517C86.752 6.02131 87.2917 6.65341 87.6895 7.49148C88.0919 8.32481 88.2931 9.34754 88.2931 10.5597C88.2931 11.7576 88.0967 12.7756 87.7037 13.6136C87.3107 14.4517 86.7756 15.0909 86.0985 15.5312C85.4215 15.9716 84.6544 16.1918 83.7974 16.1918C83.1724 16.1918 82.6539 16.0876 82.242 15.8793C81.8301 15.6709 81.4986 15.42 81.2477 15.1264C81.0015 14.8281 80.8097 14.5464 80.6724 14.2812H80.5659V20.0909H77.9949ZM80.5162 10.5455C80.5162 11.2509 80.6156 11.8688 80.8145 12.3991C81.0181 12.9295 81.3092 13.3437 81.688 13.642C82.0716 13.9356 82.5356 14.0824 83.0801 14.0824C83.6483 14.0824 84.1241 13.9309 84.5076 13.6278C84.8912 13.3201 85.18 12.901 85.3741 12.3707C85.573 11.8357 85.6724 11.2273 85.6724 10.5455C85.6724 9.86837 85.5753 9.26705 85.3812 8.74148C85.1871 8.21591 84.8983 7.80398 84.5147 7.50568C84.1312 7.20739 83.653 7.05824 83.0801 7.05824C82.5308 7.05824 82.0645 7.20265 81.6809 7.49148C81.2974 7.7803 81.0062 8.18513 80.8074 8.70597C80.6132 9.2268 80.5162 9.83996 80.5162 10.5455ZM93.6341 16.2202C92.9428 16.2202 92.3201 16.0971 91.7662 15.8509C91.2169 15.5999 90.7813 15.2306 90.4593 14.7429C90.1421 14.2552 89.9835 13.6539 89.9835 12.9389C89.9835 12.3234 90.0971 11.8144 90.3244 11.4119C90.5517 11.0095 90.8618 10.6875 91.2548 10.446C91.6478 10.2045 92.0905 10.0223 92.5829 9.89915C93.0801 9.77131 93.5938 9.67898 94.1241 9.62216C94.7633 9.55587 95.2818 9.49669 95.6795 9.4446C96.0772 9.38778 96.3661 9.30256 96.546 9.18892C96.7306 9.07055 96.823 8.88826 96.823 8.64205V8.59943C96.823 8.06439 96.6644 7.65009 96.3471 7.35653C96.0299 7.06297 95.573 6.91619 94.9764 6.91619C94.3467 6.91619 93.8471 7.0535 93.4778 7.32812C93.1132 7.60275 92.867 7.92708 92.7392 8.30114L90.3386 7.96023C90.528 7.29735 90.8405 6.74337 91.2761 6.2983C91.7117 5.84848 92.2444 5.51231 92.8741 5.28977C93.5038 5.0625 94.1999 4.94886 94.9622 4.94886C95.4877 4.94886 96.0109 5.01042 96.5318 5.13352C97.0526 5.25663 97.5285 5.46023 97.9593 5.74432C98.3902 6.02367 98.7359 6.40483 98.9963 6.88778C99.2614 7.37074 99.394 7.97443 99.394 8.69886V16H96.9224V14.5014H96.8372C96.6809 14.8045 96.4608 15.0885 96.1767 15.3537C95.8973 15.6141 95.5446 15.8248 95.1184 15.9858C94.697 16.142 94.2022 16.2202 93.6341 16.2202ZM94.3017 14.331C94.8178 14.331 95.2652 14.2292 95.644 14.0256C96.0228 13.8172 96.314 13.5426 96.5176 13.2017C96.7259 12.8608 96.8301 12.4891 96.8301 12.0866V10.8011C96.7496 10.8674 96.6123 10.929 96.4181 10.9858C96.2288 11.0426 96.0157 11.0923 95.7789 11.1349C95.5422 11.1776 95.3078 11.2154 95.0758 11.2486C94.8438 11.2817 94.6426 11.3101 94.4721 11.3338C94.0886 11.3859 93.7453 11.4711 93.4423 11.5895C93.1393 11.7079 92.9002 11.8736 92.725 12.0866C92.5498 12.295 92.4622 12.5649 92.4622 12.8963C92.4622 13.3698 92.635 13.7273 92.9806 13.9688C93.3263 14.2102 93.7666 14.331 94.3017 14.331ZM104.55 9.60795V16H101.979V5.09091H104.437V6.9446H104.564C104.815 6.33381 105.215 5.84848 105.765 5.48864C106.319 5.12879 107.003 4.94886 107.817 4.94886C108.57 4.94886 109.226 5.10985 109.785 5.43182C110.348 5.75379 110.784 6.22017 111.091 6.83097C111.404 7.44176 111.558 8.18276 111.553 9.05398V16H108.982V9.4517C108.982 8.72254 108.793 8.15199 108.414 7.74006C108.04 7.32812 107.521 7.12216 106.858 7.12216C106.409 7.12216 106.009 7.22159 105.658 7.42045C105.313 7.61458 105.04 7.89631 104.841 8.26562C104.647 8.63494 104.55 9.08239 104.55 9.60795ZM114.167 16V5.09091H116.738V16H114.167ZM115.459 3.54261C115.052 3.54261 114.702 3.40767 114.408 3.13778C114.115 2.86316 113.968 2.53409 113.968 2.15057C113.968 1.76231 114.115 1.43324 114.408 1.16335C114.702 0.88873 115.052 0.75142 115.459 0.75142C115.871 0.75142 116.222 0.88873 116.51 1.16335C116.804 1.43324 116.951 1.76231 116.951 2.15057C116.951 2.53409 116.804 2.86316 116.51 3.13778C116.222 3.40767 115.871 3.54261 115.459 3.54261ZM124.211 16.2131C123.117 16.2131 122.173 15.9858 121.377 15.5312C120.587 15.072 119.978 14.4233 119.552 13.5852C119.126 12.7424 118.913 11.7505 118.913 10.6094C118.913 9.48722 119.126 8.50237 119.552 7.65483C119.983 6.80256 120.584 6.13968 121.356 5.66619C122.128 5.18797 123.035 4.94886 124.076 4.94886C124.749 4.94886 125.383 5.05777 125.98 5.27557C126.581 5.48864 127.111 5.82008 127.57 6.26989C128.035 6.7197 128.399 7.29261 128.664 7.98864C128.929 8.67992 129.062 9.50379 129.062 10.4602V11.2486H120.12V9.51562H126.597C126.593 9.0232 126.486 8.58523 126.278 8.2017C126.07 7.81345 125.778 7.50805 125.404 7.28551C125.035 7.06297 124.604 6.9517 124.112 6.9517C123.586 6.9517 123.124 7.07955 122.727 7.33523C122.329 7.58617 122.019 7.91761 121.796 8.32955C121.579 8.73674 121.467 9.18419 121.463 9.67188V11.1847C121.463 11.8191 121.579 12.3636 121.811 12.8182C122.043 13.268 122.367 13.6136 122.784 13.8551C123.2 14.0919 123.688 14.2102 124.247 14.2102C124.621 14.2102 124.959 14.1581 125.262 14.054C125.565 13.9451 125.828 13.7865 126.051 13.5781C126.273 13.3698 126.441 13.1117 126.555 12.804L128.955 13.0739C128.804 13.7083 128.515 14.2623 128.089 14.7358C127.668 15.2045 127.128 15.5691 126.47 15.8295C125.811 16.0852 125.059 16.2131 124.211 16.2131ZM139.859 7.97443L137.515 8.23011C137.449 7.99337 137.333 7.77083 137.167 7.5625C137.006 7.35417 136.789 7.18608 136.514 7.05824C136.239 6.9304 135.903 6.86648 135.506 6.86648C134.97 6.86648 134.521 6.98248 134.156 7.21449C133.796 7.4465 133.619 7.74716 133.623 8.11648C133.619 8.43371 133.735 8.69176 133.971 8.89062C134.213 9.08949 134.611 9.25284 135.165 9.38068L137.025 9.77841C138.058 10.0009 138.825 10.3537 139.327 10.8366C139.833 11.3196 140.089 11.9517 140.094 12.733C140.089 13.4195 139.888 14.0256 139.49 14.5511C139.097 15.072 138.55 15.4792 137.849 15.7727C137.148 16.0663 136.344 16.2131 135.434 16.2131C134.099 16.2131 133.024 15.9337 132.21 15.375C131.396 14.8116 130.91 14.0279 130.754 13.0241L133.261 12.7827C133.375 13.2751 133.616 13.6468 133.986 13.8977C134.355 14.1487 134.836 14.2741 135.427 14.2741C136.038 14.2741 136.528 14.1487 136.898 13.8977C137.272 13.6468 137.459 13.3366 137.459 12.9673C137.459 12.6548 137.338 12.3968 137.096 12.1932C136.86 11.9896 136.49 11.8333 135.988 11.7244L134.128 11.3338C133.081 11.116 132.307 10.7491 131.805 10.233C131.303 9.71212 131.055 9.05398 131.059 8.25852C131.055 7.58617 131.237 7.00379 131.606 6.51136C131.98 6.0142 132.499 5.63068 133.162 5.3608C133.829 5.08617 134.599 4.94886 135.47 4.94886C136.748 4.94886 137.755 5.22112 138.488 5.76562C139.227 6.31013 139.684 7.0464 139.859 7.97443ZM147.288 16V1.45455H156.748V3.66335H149.923V7.61222H156.258V9.82102H149.923V13.7912H156.805V16H147.288ZM159.437 16V1.45455H162.072V13.7912H168.478V16H159.437ZM178.67 5.45312C178.603 4.83286 178.324 4.34991 177.831 4.00426C177.344 3.65862 176.709 3.4858 175.928 3.4858C175.379 3.4858 174.908 3.56866 174.515 3.73438C174.122 3.90009 173.821 4.125 173.613 4.40909C173.404 4.69318 173.298 5.01752 173.293 5.3821C173.293 5.68513 173.362 5.94792 173.499 6.17045C173.641 6.39299 173.833 6.58239 174.074 6.73864C174.316 6.89015 174.583 7.01799 174.877 7.12216C175.171 7.22633 175.466 7.31392 175.765 7.38494L177.128 7.72585C177.678 7.85369 178.206 8.02651 178.712 8.24432C179.224 8.46212 179.68 8.73674 180.083 9.06818C180.49 9.39962 180.812 9.79972 181.049 10.2685C181.286 10.7372 181.404 11.2865 181.404 11.9162C181.404 12.7685 181.186 13.5189 180.751 14.1676C180.315 14.8116 179.685 15.3158 178.861 15.6804C178.042 16.0402 177.05 16.2202 175.885 16.2202C174.754 16.2202 173.771 16.045 172.938 15.6946C172.109 15.3442 171.461 14.8329 170.992 14.1605C170.528 13.4882 170.277 12.669 170.239 11.7031H172.831C172.869 12.2098 173.026 12.6312 173.3 12.9673C173.575 13.3035 173.932 13.5545 174.373 13.7202C174.818 13.8859 175.315 13.9688 175.864 13.9688C176.437 13.9688 176.939 13.8835 177.37 13.7131C177.805 13.5379 178.146 13.2964 178.393 12.9886C178.639 12.6761 178.764 12.3116 178.769 11.8949C178.764 11.5161 178.653 11.2036 178.435 10.9574C178.217 10.7064 177.912 10.4981 177.519 10.3324C177.131 10.1619 176.676 10.0104 176.155 9.87784L174.501 9.4517C173.303 9.14394 172.356 8.67756 171.66 8.05256C170.968 7.42282 170.623 6.58712 170.623 5.54545C170.623 4.68845 170.855 3.93797 171.319 3.29403C171.787 2.65009 172.424 2.15057 173.229 1.79545C174.034 1.43561 174.946 1.25568 175.964 1.25568C176.996 1.25568 177.9 1.43561 178.677 1.79545C179.458 2.15057 180.071 2.64536 180.516 3.27983C180.961 3.90956 181.191 4.634 181.205 5.45312H178.67ZM196.75 8.72727C196.75 10.2945 196.457 11.6368 195.869 12.7543C195.287 13.867 194.492 14.7192 193.483 15.3111C192.479 15.9029 191.341 16.1989 190.067 16.1989C188.793 16.1989 187.652 15.9029 186.644 15.3111C185.64 14.7145 184.844 13.8598 184.257 12.7472C183.675 11.6297 183.384 10.2898 183.384 8.72727C183.384 7.16004 183.675 5.82008 184.257 4.70739C184.844 3.58996 185.64 2.73532 186.644 2.14347C187.652 1.55161 188.793 1.25568 190.067 1.25568C191.341 1.25568 192.479 1.55161 193.483 2.14347C194.492 2.73532 195.287 3.58996 195.869 4.70739C196.457 5.82008 196.75 7.16004 196.75 8.72727ZM194.101 8.72727C194.101 7.62405 193.928 6.69366 193.583 5.93608C193.242 5.17377 192.768 4.59848 192.162 4.21023C191.556 3.81723 190.858 3.62074 190.067 3.62074C189.276 3.62074 188.578 3.81723 187.972 4.21023C187.366 4.59848 186.89 5.17377 186.544 5.93608C186.203 6.69366 186.033 7.62405 186.033 8.72727C186.033 9.83049 186.203 10.7633 186.544 11.5256C186.89 12.2831 187.366 12.8584 187.972 13.2514C188.578 13.6397 189.276 13.8338 190.067 13.8338C190.858 13.8338 191.556 13.6397 192.162 13.2514C192.768 12.8584 193.242 12.2831 193.583 11.5256C193.928 10.7633 194.101 9.83049 194.101 8.72727Z" fill="#111827"/>
</svg>
