<svg width="140" height="60" viewBox="0 0 140 60" fill="none" xmlns="http://www.w3.org/2000/svg">
<path d="M39.1987 26.4503H42.1975V35.3156H47.1318V36.7932H39.1987V26.4503Z" fill="#9CA3AF"/>
<path d="M52.7987 36.941C51.3266 36.941 50.1998 36.7144 49.4183 36.2613C48.6368 35.8082 48.2461 35.1679 48.2461 34.3405V28.9031C48.2461 28.0757 48.6368 27.4354 49.4183 26.9823C50.1998 26.5292 51.3266 26.3026 52.7987 26.3026C54.2708 26.3026 55.3976 26.5292 56.1792 26.9823C56.9606 27.4354 57.3514 28.0757 57.3514 28.9031V34.3405C57.3514 35.1679 56.9606 35.8082 56.1792 36.2613C55.3976 36.7144 54.2708 36.941 52.7987 36.941ZM52.7987 35.4634C53.8347 35.4634 54.3527 35.1236 54.3527 34.4439V28.7997C54.3527 28.12 53.8347 27.7802 52.7987 27.7802C51.7628 27.7802 51.2448 28.12 51.2448 28.7997V34.4439C51.2448 35.1236 51.7628 35.4634 52.7987 35.4634Z" fill="#9CA3AF"/>
<path d="M63.6349 36.9409C62.181 36.9409 61.0724 36.7193 60.309 36.276C59.5457 35.823 59.1641 35.1777 59.1641 34.3404V28.9031C59.1641 28.0658 59.5457 27.4255 60.309 26.9823C61.0724 26.5291 62.181 26.3026 63.6349 26.3026C65.0889 26.3026 66.1975 26.5291 66.9608 26.9823C67.7242 27.4255 68.1058 28.0658 68.1058 28.9031V29.7896H65.2706V28.7996C65.2706 28.12 64.7526 27.7801 63.7167 27.7801C62.6808 27.7801 62.1628 28.12 62.1628 28.7996V34.4587C62.1628 35.1285 62.6808 35.4634 63.7167 35.4634C64.7526 35.4634 65.2706 35.1285 65.2706 34.4587V32.4344H63.7713V30.9569H68.1058V34.3404C68.1058 35.1777 67.7242 35.823 66.9608 36.276C66.1975 36.7193 65.0889 36.9409 63.6349 36.9409Z" fill="#9CA3AF"/>
<path d="M74.3607 36.941C72.8886 36.941 71.7618 36.7144 70.9804 36.2613C70.1988 35.8082 69.8081 35.1679 69.8081 34.3405V28.9031C69.8081 28.0757 70.1988 27.4354 70.9804 26.9823C71.7618 26.5292 72.8886 26.3026 74.3607 26.3026C75.8329 26.3026 76.9597 26.5292 77.7412 26.9823C78.5227 27.4354 78.9134 28.0757 78.9134 28.9031V34.3405C78.9134 35.1679 78.5227 35.8082 77.7412 36.2613C76.9597 36.7144 75.8329 36.941 74.3607 36.941ZM74.3607 35.4634C75.3967 35.4634 75.9147 35.1236 75.9147 34.4439V28.7997C75.9147 28.12 75.3967 27.7802 74.3607 27.7802C73.3249 27.7802 72.8069 28.12 72.8069 28.7997V34.4439C72.8069 35.1236 73.3249 35.4634 74.3607 35.4634Z" fill="#9CA3AF"/>
<path d="M80.9473 26.4503H83.946V36.7932H80.9473V26.4503Z" fill="#9CA3AF"/>
<path d="M86.1934 26.4503H90.6097C92.0998 26.4503 93.2176 26.667 93.963 27.1004C94.7084 27.5339 95.0808 28.1692 95.0808 29.0065V30.026C95.0808 30.8633 94.7084 31.4986 93.963 31.932C93.2176 32.3654 92.0998 32.5821 90.6097 32.5821H89.1924V36.7932H86.1934V26.4503ZM90.6097 31.1046C91.1006 31.1046 91.464 31.0307 91.7004 30.883C91.9549 30.7352 92.0818 30.484 92.0818 30.1294V28.9031C92.0818 28.5484 91.9549 28.2973 91.7004 28.1495C91.464 28.0017 91.1006 27.9279 90.6097 27.9279H89.1924V31.1046H90.6097Z" fill="#9CA3AF"/>
<path d="M100.716 36.9409C99.2623 36.9409 98.1625 36.7193 97.4171 36.276C96.6724 35.823 96.2993 35.1777 96.2993 34.3404V33.7494H99.1347V34.4587C99.1347 35.1285 99.6526 35.4634 100.689 35.4634C101.198 35.4634 101.579 35.3846 101.833 35.227C102.106 35.0595 102.243 34.7936 102.243 34.4291C102.243 33.9957 102.061 33.6165 101.698 33.2914C101.334 32.9565 100.662 32.5575 99.6797 32.0946C98.444 31.5036 97.5807 30.9717 97.0898 30.4988C96.5996 30.0162 96.3541 29.4744 96.3541 28.8735C96.3541 28.056 96.7355 27.4255 97.4989 26.9823C98.2624 26.5291 99.3711 26.3026 100.825 26.3026C102.261 26.3026 103.342 26.5291 104.069 26.9823C104.814 27.4255 105.187 28.0658 105.187 28.9031V29.3316H102.351V28.7996C102.351 28.445 102.225 28.1889 101.97 28.0313C101.716 27.8639 101.343 27.7801 100.852 27.7801C99.8523 27.7801 99.3531 28.1101 99.3531 28.7701C99.3531 29.1444 99.5348 29.4941 99.8981 29.8192C100.279 30.1442 100.961 30.5382 101.943 31.0012C103.197 31.5922 104.06 32.1291 104.533 32.6117C105.005 33.0944 105.242 33.6608 105.242 34.3109C105.242 35.158 104.85 35.8081 104.069 36.2613C103.306 36.7144 102.188 36.9409 100.716 36.9409Z" fill="#9CA3AF"/>
<path d="M111.323 36.9409C109.869 36.9409 108.76 36.7193 107.996 36.276C107.233 35.8229 106.852 35.1777 106.852 34.3404V26.4503H109.851V34.4587C109.851 34.8132 109.977 35.0694 110.232 35.227C110.504 35.3846 110.887 35.4634 111.377 35.4634C111.868 35.4634 112.24 35.3846 112.494 35.227C112.767 35.0694 112.904 34.8132 112.904 34.4587V26.4503H115.793V34.3404C115.793 35.1777 115.412 35.8229 114.648 36.276C113.885 36.7193 112.776 36.9409 111.323 36.9409Z" fill="#9CA3AF"/>
<path d="M117.93 26.4503H122.211L124.119 33.8528H124.173L126.082 26.4503H130.362V36.7932H127.526V28.9622H127.472L125.291 36.7932H122.783L120.602 28.9622H120.548V36.7932H117.93V26.4503Z" fill="#9CA3AF"/>
<path d="M10.2495 36.7932C13.9388 36.7932 16.9295 35.1722 16.9295 33.1727C16.9295 31.1731 13.9388 29.5522 10.2495 29.5522V32.0865C11.3563 32.0865 12.2535 32.5728 12.2535 33.1727C12.2535 33.7725 11.3563 34.2588 10.2495 34.2588V36.7932Z" fill="#9CA3AF"/>
<path d="M32.5167 30.7591C31.3752 30.5631 30.1596 30.4573 28.8984 30.4573C22.2885 30.4573 16.9302 33.3616 16.9302 36.944C16.9302 37.3036 16.9842 37.6564 17.088 38H24.5242C24.2588 37.6775 24.1112 37.3201 24.1112 36.944C24.1112 35.511 26.2545 34.3493 28.8984 34.3493C30.3435 34.3493 31.6389 34.6964 32.5167 35.245V30.7591Z" fill="#9CA3AF"/>
<path d="M11.4229 25.9317C11.9767 28.647 16.2241 30.759 21.3816 30.759C26.5391 30.759 30.7866 28.647 31.3404 25.9317H24.1747C23.7323 26.5328 22.6484 26.9575 21.3816 26.9575C20.1148 26.9575 19.031 26.5328 18.5886 25.9317H11.4229Z" fill="#9CA3AF"/>
</svg>
