<svg width="140" height="60" viewBox="0 0 140 60" fill="none" xmlns="http://www.w3.org/2000/svg">
<path fill-rule="evenodd" clip-rule="evenodd" d="M25.3458 25.323C24.4033 24.7049 23.2952 24.375 22.1616 24.375V18.75C24.4287 18.75 26.645 19.4098 28.5301 20.646C30.4151 21.8821 31.8843 23.6391 32.7519 25.6948C33.6195 27.7505 33.8465 30.0125 33.4042 32.1948C32.9619 34.377 31.8702 36.3816 30.2671 37.9549C28.664 39.5283 26.6215 40.5998 24.3979 41.0338C22.1743 41.4679 19.8695 41.2451 17.7749 40.3937C15.6804 39.5421 13.8901 38.1002 12.6306 36.2502C11.371 34.4001 10.6987 32.225 10.6987 30H16.4302C16.4302 31.1125 16.7663 32.2001 17.3961 33.1251C18.0259 34.0501 18.921 34.7711 19.9683 35.1968C21.0156 35.6226 22.168 35.734 23.2798 35.5169C24.3915 35.2999 25.4128 34.7642 26.2144 33.9775C27.0159 33.1908 27.5618 32.1885 27.7829 31.0974C28.0041 30.0062 27.8906 28.8752 27.4568 27.8474C27.023 26.8196 26.2884 25.9411 25.3458 25.323Z" fill="#9CA3AF"/>
<path fill-rule="evenodd" clip-rule="evenodd" d="M16.4302 18.75C16.4302 19.4887 16.2819 20.2201 15.9939 20.9026C15.7059 21.5851 15.2837 22.2051 14.7515 22.7275C14.2193 23.2498 13.5874 23.6641 12.8921 23.9468C12.1967 24.2295 11.4514 24.375 10.6987 24.375L10.6987 30C12.2041 30 13.6946 29.709 15.0854 29.1437C16.4761 28.5783 17.7398 27.7496 18.8042 26.7049C19.8686 25.6603 20.713 24.4201 21.2891 23.0552C21.8651 21.6903 22.1616 20.2274 22.1616 18.75L16.4302 18.75Z" fill="#9CA3AF"/>
<path d="M85.0012 26.8796H82.1313V35.549H85.0012V26.8796Z" fill="#9CA3AF"/>
<path d="M82.4484 25.2562C82.7482 25.5416 83.1232 25.6843 83.5733 25.6843C84.0235 25.6843 84.3925 25.5416 84.68 25.2562C84.968 24.9589 85.1118 24.6021 85.1118 24.1859C85.1118 23.7578 84.968 23.401 84.68 23.1156C84.3925 22.8302 84.0235 22.6875 83.5733 22.6875C83.1232 22.6875 82.7482 22.8302 82.4484 23.1156C82.1603 23.401 82.0166 23.7578 82.0166 24.1859C82.0166 24.6021 82.1603 24.9589 82.4484 25.2562Z" fill="#9CA3AF"/>
<path d="M40.9546 35.5489V22.955H43.8995V33.0872H49.7704V35.5489H40.9546Z" fill="#9CA3AF"/>
<path fill-rule="evenodd" clip-rule="evenodd" d="M55.0767 35.7451C54.1389 35.7451 53.2886 35.5489 52.5258 35.1564C51.7755 34.7521 51.1816 34.2051 50.7439 33.5153C50.3062 32.8256 50.0874 32.0526 50.0874 31.1963C50.0874 30.3401 50.3062 29.5731 50.7439 28.8952C51.1816 28.2173 51.7755 27.6822 52.5258 27.2898C53.2761 26.8854 54.1264 26.6832 55.0767 26.6832C56.0271 26.6832 56.8774 26.8795 57.6277 27.2719C58.378 27.6643 58.972 28.2055 59.4096 28.8952C59.8473 29.5731 60.0661 30.3401 60.0661 31.1963C60.0661 32.0526 59.8473 32.8256 59.4096 33.5153C58.972 34.2051 58.378 34.7521 57.6277 35.1564C56.8774 35.5489 56.0271 35.7451 55.0767 35.7451ZM55.0767 33.2656C55.4894 33.2656 55.852 33.1824 56.1647 33.0159C56.4773 32.8375 56.7149 32.5937 56.8774 32.2845C57.0525 31.9634 57.14 31.6007 57.14 31.1963C57.14 30.792 57.0525 30.4412 56.8774 30.1439C56.7023 29.8347 56.4585 29.5969 56.1459 29.4304C55.8458 29.2519 55.4894 29.1628 55.0767 29.1628C54.6766 29.1628 54.3202 29.2519 54.0076 29.4304C53.695 29.5969 53.4511 29.8347 53.2761 30.1439C53.101 30.4531 53.0135 30.8098 53.0135 31.2142C53.0135 31.6066 53.101 31.9634 53.2761 32.2845C53.4511 32.5937 53.695 32.8375 54.0076 33.0159C54.3202 33.1824 54.6766 33.2656 55.0767 33.2656Z" fill="#9CA3AF"/>
<path fill-rule="evenodd" clip-rule="evenodd" d="M62.337 38.9384C63.0998 39.2713 63.9813 39.4378 64.9817 39.4378C65.9571 39.4378 66.8262 39.2535 67.5889 38.8848C68.3518 38.5161 68.9519 38.0048 69.3896 37.3507C69.8272 36.6967 70.0464 35.9237 70.0464 35.0317V26.8796H67.2325V27.4621C67.0233 27.2946 66.7856 27.154 66.5198 27.0402C66.0321 26.8142 65.4756 26.7012 64.8504 26.7012C64.0126 26.7012 63.2686 26.8915 62.6184 27.272C61.968 27.6407 61.4554 28.1521 61.0802 28.8061C60.7051 29.4484 60.5176 30.1738 60.5176 30.9825C60.5176 31.7792 60.7051 32.5046 61.0802 33.1587C61.4554 33.8128 61.968 34.3301 62.6184 34.7107C63.2686 35.0912 64.0126 35.2815 64.8504 35.2815C65.4631 35.2815 66.0196 35.1685 66.5198 34.9426C66.7621 34.8331 66.9809 34.7041 67.1763 34.5556V35.1031C67.1763 35.7096 66.97 36.1793 66.5573 36.5123C66.1572 36.8453 65.6007 37.0118 64.8879 37.0118C64.3127 37.0118 63.8188 36.9167 63.4061 36.7264C63.006 36.5361 62.6433 36.2566 62.3182 35.888L60.5551 37.5648C60.9927 38.1594 61.5867 38.6173 62.337 38.9384ZM66.426 32.6057C66.1384 32.7722 65.7945 32.8555 65.3944 32.8555C64.9942 32.8555 64.6441 32.7722 64.344 32.6057C64.0563 32.4392 63.8313 32.2133 63.6687 31.9279C63.5061 31.6306 63.4249 31.3154 63.4249 30.9825C63.4249 30.6257 63.5061 30.3046 63.6687 30.0192C63.8313 29.7338 64.0626 29.5078 64.3627 29.3413C64.6628 29.1748 65.0067 29.0916 65.3944 29.0916C65.7945 29.0916 66.1384 29.1748 66.426 29.3413C66.7261 29.5078 66.9512 29.7338 67.1013 30.0192C67.2638 30.3046 67.3451 30.6257 67.3451 30.9825C67.3451 31.3392 67.2638 31.6603 67.1013 31.9457C66.9512 32.2192 66.7261 32.4392 66.426 32.6057Z" fill="#9CA3AF"/>
<path fill-rule="evenodd" clip-rule="evenodd" d="M76.0863 35.7451C75.1482 35.7451 74.2977 35.5489 73.5353 35.1564C72.7847 34.7521 72.1909 34.2051 71.7532 33.5153C71.3155 32.8256 71.0967 32.0526 71.0967 31.1963C71.0967 30.3401 71.3155 29.5731 71.7532 28.8952C72.1909 28.2173 72.7847 27.6822 73.5353 27.2898C74.2853 26.8854 75.1358 26.6832 76.0863 26.6832C77.0362 26.6832 77.8867 26.8795 78.6367 27.2719C79.3873 27.6643 79.9811 28.2055 80.4188 28.8952C80.8565 29.5731 81.0753 30.3401 81.0753 31.1963C81.0753 32.0526 80.8565 32.8256 80.4188 33.5153C79.9811 34.2051 79.3873 34.7521 78.6367 35.1564C77.8867 35.5489 77.0362 35.7451 76.0863 35.7451ZM76.0863 33.2656C76.4986 33.2656 76.8611 33.1824 77.174 33.0159C77.4863 32.8375 77.7241 32.5937 77.8867 32.2845C78.0618 31.9634 78.1493 31.6007 78.1493 31.1963C78.1493 30.792 78.0618 30.4412 77.8867 30.1439C77.7117 29.8347 77.468 29.5969 77.1551 29.4304C76.8552 29.2519 76.4986 29.1628 76.0863 29.1628C75.6859 29.1628 75.3292 29.2519 75.0169 29.4304C74.704 29.5969 74.4604 29.8347 74.2853 30.1439C74.1102 30.4531 74.0227 30.8098 74.0227 31.2142C74.0227 31.6066 74.1102 31.9634 74.2853 32.2845C74.4604 32.5937 74.704 32.8375 75.0169 33.0159C75.3292 33.1824 75.6859 33.2656 76.0863 33.2656Z" fill="#9CA3AF"/>
<path fill-rule="evenodd" clip-rule="evenodd" d="M91.8996 35.7274C91.2874 35.7274 90.7244 35.6145 90.2116 35.3885C89.9418 35.2696 89.6982 35.1276 89.4805 34.9626V39.2059H86.6479V26.8796H89.5178V27.478C89.726 27.316 89.9572 27.176 90.2116 27.058C90.7244 26.8201 91.2874 26.7012 91.8996 26.7012C92.7626 26.7012 93.5255 26.8975 94.188 27.2899C94.8634 27.6823 95.3887 28.2175 95.7637 28.8954C96.1517 29.5732 96.3451 30.3462 96.3451 31.2143C96.3451 32.0825 96.1517 32.8555 95.7637 33.5333C95.3887 34.2112 94.8634 34.7463 94.188 35.1388C93.5255 35.5312 92.7626 35.7274 91.8996 35.7274ZM91.375 33.2658C91.7872 33.2658 92.1439 33.1766 92.4438 32.9982C92.7566 32.8198 93.0003 32.576 93.1754 32.2668C93.3505 31.9576 93.438 31.6068 93.438 31.2143C93.438 30.81 93.3505 30.4533 93.1754 30.1441C93.0003 29.8348 92.7566 29.597 92.4438 29.4305C92.1439 29.2521 91.7937 29.1629 91.3933 29.1629C90.9935 29.1629 90.6368 29.2521 90.3245 29.4305C90.0241 29.597 89.7869 29.8348 89.6118 30.1441C89.4367 30.4533 89.3492 30.81 89.3492 31.2143C89.3492 31.6068 89.4302 31.9576 89.5929 32.2668C89.7679 32.576 90.0116 32.8198 90.3245 32.9982C90.6368 33.1766 90.987 33.2658 91.375 33.2658Z" fill="#9CA3AF"/>
<path d="M99.1554 35.5668C99.6806 35.6976 100.212 35.763 100.749 35.763C101.887 35.763 102.788 35.5133 103.451 35.0138C104.125 34.5144 104.463 33.8425 104.463 32.9981C104.463 32.4511 104.357 32.011 104.144 31.6781C103.932 31.3332 103.657 31.0597 103.319 30.8575C102.982 30.6553 102.625 30.4947 102.25 30.3758C101.875 30.2569 101.518 30.1558 101.181 30.0726C100.843 29.9893 100.568 29.8942 100.355 29.7872C100.143 29.6801 100.037 29.5374 100.037 29.3591C100.037 29.1926 100.118 29.0677 100.28 28.9844C100.443 28.8893 100.687 28.8418 101.012 28.8418C101.35 28.8418 101.693 28.9071 102.044 29.038C102.406 29.1688 102.731 29.3948 103.019 29.7159L104.651 28.1461C104.238 27.6466 103.701 27.272 103.038 27.0223C102.388 26.7606 101.675 26.6298 100.9 26.6298C100.162 26.6298 99.5179 26.7487 98.9679 26.9865C98.4172 27.2244 97.992 27.5515 97.6921 27.9677C97.3922 28.372 97.242 28.8537 97.242 29.4126C97.242 29.9358 97.3484 30.3699 97.5608 30.7148C97.7731 31.0477 98.0487 31.3094 98.3859 31.4997C98.7236 31.6899 99.0803 31.8386 99.4552 31.9456C99.8302 32.0526 100.187 32.1537 100.525 32.2489C100.862 32.3322 101.137 32.4332 101.35 32.5521C101.575 32.6592 101.687 32.8197 101.687 33.0338C101.687 33.2003 101.593 33.331 101.406 33.4262C101.231 33.5213 100.975 33.5689 100.637 33.5689C100.149 33.5689 99.6989 33.4857 99.2867 33.3192C98.8738 33.1408 98.5172 32.897 98.2173 32.5878L96.5854 34.1576C96.8983 34.4787 97.2733 34.7641 97.711 35.0138C98.1611 35.2516 98.6426 35.436 99.1554 35.5668Z" fill="#9CA3AF"/>
<path d="M109.691 35.7452C108.854 35.7452 108.11 35.5847 107.46 35.2636C106.822 34.9306 106.322 34.4787 105.959 33.9079C105.596 33.3252 105.415 32.6592 105.415 31.91V26.8796H108.285V31.8743C108.285 32.1716 108.335 32.4273 108.435 32.6414C108.547 32.8554 108.71 33.0219 108.922 33.1409C109.135 33.2598 109.391 33.3192 109.691 33.3192C110.117 33.3192 110.454 33.1943 110.705 32.9446C110.955 32.683 111.08 32.3262 111.08 31.8743V26.8796H113.949V31.8922C113.949 32.6533 113.768 33.3252 113.405 33.9079C113.043 34.4787 112.543 34.9306 111.905 35.2636C111.267 35.5847 110.529 35.7452 109.691 35.7452Z" fill="#9CA3AF"/>
<path d="M118.246 26.8796H115.376V35.5491H118.246V30.483C118.246 30.1857 118.309 29.9359 118.434 29.7338C118.572 29.5316 118.753 29.377 118.978 29.27C119.203 29.151 119.459 29.0916 119.747 29.0916C120.16 29.0916 120.503 29.2164 120.778 29.4662C121.066 29.704 121.21 30.043 121.21 30.483V35.5491H124.08V30.483C124.08 30.1857 124.143 29.9359 124.267 29.7338C124.405 29.5316 124.586 29.377 124.812 29.27C125.036 29.151 125.293 29.0916 125.58 29.0916C125.993 29.0916 126.337 29.2164 126.612 29.4662C126.899 29.704 127.043 30.043 127.043 30.483V35.5491H129.914V30.1797C129.914 29.4543 129.751 28.8359 129.426 28.3245C129.113 27.8012 128.682 27.4029 128.131 27.1294C127.594 26.8439 126.975 26.7012 126.274 26.7012C125.562 26.7012 124.917 26.8499 124.343 27.1472C123.969 27.3366 123.642 27.5811 123.362 27.8806C123.102 27.5673 122.785 27.311 122.41 27.1115C121.91 26.838 121.341 26.7012 120.704 26.7012C120.028 26.7012 119.422 26.838 118.884 27.1115C118.65 27.2253 118.438 27.3616 118.246 27.5204V26.8796Z" fill="#9CA3AF"/>
</svg>
