<svg width="14" height="16" viewBox="0 0 14 16" fill="none" xmlns="http://www.w3.org/2000/svg">
<path fill-rule="evenodd" clip-rule="evenodd" d="M7.00008 1.25001C5.56349 1.25001 4.18574 1.82069 3.16992 2.83651C2.1541 3.85234 1.58341 5.23009 1.58341 6.66668C1.58341 8.76554 2.94676 10.79 4.42355 12.3488C5.15002 13.1157 5.87847 13.7431 6.42596 14.1791C6.65406 14.3607 6.84993 14.5085 7.00008 14.6185C7.15023 14.5085 7.3461 14.3607 7.57421 14.1791C8.12169 13.7431 8.85014 13.1157 9.57661 12.3488C11.0534 10.79 12.4167 8.76554 12.4167 6.66668C12.4167 5.23009 11.8461 3.85234 10.8302 2.83651C9.81442 1.82069 8.43667 1.25001 7.00008 1.25001ZM7.00008 15.3333C6.67651 15.8187 6.67618 15.8185 6.67618 15.8185L6.67439 15.8173L6.67009 15.8144L6.65512 15.8043C6.64234 15.7956 6.62403 15.7831 6.60057 15.7668C6.55364 15.7343 6.48605 15.6869 6.40073 15.6253C6.23016 15.5021 5.98843 15.3221 5.69921 15.0918C5.12169 14.6319 4.35014 13.9677 3.57661 13.1512C2.0534 11.5434 0.416748 9.23448 0.416748 6.66668C0.416748 4.92067 1.11035 3.24617 2.34496 2.01156C3.57958 0.776943 5.25407 0.0833435 7.00008 0.0833435C8.74609 0.0833435 10.4206 0.776943 11.6552 2.01156C12.8898 3.24617 13.5834 4.92067 13.5834 6.66668C13.5834 9.23448 11.9468 11.5434 10.4236 13.1512C9.65002 13.9677 8.87847 14.6319 8.30095 15.0918C8.01173 15.3221 7.77 15.5021 7.59943 15.6253C7.51412 15.6869 7.44652 15.7343 7.3996 15.7668C7.37613 15.7831 7.35782 15.7956 7.34505 15.8043L7.33007 15.8144L7.32578 15.8173L7.32444 15.8182C7.32444 15.8182 7.32366 15.8187 7.00008 15.3333ZM7.00008 15.3333L7.32366 15.8187C7.12772 15.9493 6.87212 15.9491 6.67618 15.8185L7.00008 15.3333Z" fill="#4E5562"/>
<path fill-rule="evenodd" clip-rule="evenodd" d="M7.00008 5.25001C6.21768 5.25001 5.58341 5.88427 5.58341 6.66668C5.58341 7.44908 6.21768 8.08334 7.00008 8.08334C7.78248 8.08334 8.41675 7.44908 8.41675 6.66668C8.41675 5.88427 7.78248 5.25001 7.00008 5.25001ZM4.41675 6.66668C4.41675 5.23994 5.57335 4.08334 7.00008 4.08334C8.42682 4.08334 9.58341 5.23994 9.58341 6.66668C9.58341 8.09341 8.42682 9.25001 7.00008 9.25001C5.57335 9.25001 4.41675 8.09341 4.41675 6.66668Z" fill="#4E5562"/>
</svg>
