<svg width="55" height="20" viewBox="0 0 55 20" fill="none" xmlns="http://www.w3.org/2000/svg">
<path d="M0 4C0 1.79086 1.79086 0 4 0H51C53.2091 0 55 1.79086 55 4V16C55 18.2091 53.2091 20 51 20H4C1.79086 20 0 18.2091 0 16V4Z" fill="#EEF1F6"/>
<path d="M8.95881 14V5.27273H12.0696C12.7486 5.27273 13.3111 5.39631 13.7571 5.64347C14.2031 5.89062 14.5369 6.22869 14.7585 6.65767C14.9801 7.08381 15.0909 7.56392 15.0909 8.09801C15.0909 8.63494 14.9787 9.1179 14.7543 9.54688C14.5327 9.97301 14.1974 10.3111 13.7486 10.5611C13.3026 10.8082 12.7415 10.9318 12.0653 10.9318H9.92614V9.81534H11.946C12.375 9.81534 12.723 9.74148 12.9901 9.59375C13.2571 9.44318 13.4531 9.23864 13.5781 8.98011C13.7031 8.72159 13.7656 8.42756 13.7656 8.09801C13.7656 7.76847 13.7031 7.47585 13.5781 7.22017C13.4531 6.96449 13.2557 6.7642 12.9858 6.61932C12.7188 6.47443 12.3665 6.40199 11.929 6.40199H10.2756V14H8.95881ZM18.3786 14.1449C17.9638 14.1449 17.5888 14.0682 17.2536 13.9148C16.9183 13.7585 16.6527 13.5327 16.4567 13.2372C16.2635 12.9418 16.1669 12.5795 16.1669 12.1506C16.1669 11.7812 16.2379 11.4773 16.38 11.2386C16.522 11 16.7138 10.8111 16.9553 10.6719C17.1967 10.5327 17.4666 10.4276 17.7649 10.3565C18.0632 10.2855 18.3672 10.2315 18.6768 10.1946C19.0689 10.1491 19.3871 10.1122 19.6314 10.0838C19.8757 10.0526 20.0533 10.0028 20.1641 9.93466C20.2749 9.86648 20.3303 9.75568 20.3303 9.60227V9.57244C20.3303 9.20028 20.2251 8.91193 20.0149 8.70739C19.8075 8.50284 19.4979 8.40057 19.0859 8.40057C18.657 8.40057 18.3189 8.49574 18.0717 8.68608C17.8274 8.87358 17.6584 9.08239 17.5646 9.3125L16.3672 9.03977C16.5092 8.64205 16.7166 8.32102 16.9893 8.0767C17.2649 7.82955 17.5817 7.65057 17.9396 7.53977C18.2976 7.42614 18.674 7.36932 19.0689 7.36932C19.3303 7.36932 19.6072 7.40057 19.8999 7.46307C20.1953 7.52273 20.4709 7.63352 20.7266 7.79545C20.9851 7.95739 21.1967 8.18892 21.3615 8.49006C21.5263 8.78835 21.6087 9.17614 21.6087 9.65341V14H20.3643V13.1051H20.3132C20.2308 13.2699 20.1072 13.4318 19.9425 13.5909C19.7777 13.75 19.5661 13.8821 19.3075 13.9872C19.049 14.0923 18.7393 14.1449 18.3786 14.1449ZM18.6555 13.1222C19.0078 13.1222 19.3089 13.0526 19.5589 12.9134C19.8118 12.7741 20.0036 12.5923 20.1342 12.3679C20.2678 12.1406 20.3345 11.8977 20.3345 11.6392V10.7955C20.2891 10.8409 20.201 10.8835 20.0703 10.9233C19.9425 10.9602 19.7962 10.9929 19.6314 11.0213C19.4666 11.0469 19.3061 11.071 19.1499 11.0938C18.9936 11.1136 18.8629 11.1307 18.7578 11.1449C18.5107 11.1761 18.2848 11.2287 18.0803 11.3026C17.8786 11.3764 17.7166 11.483 17.5945 11.6222C17.4751 11.7585 17.4155 11.9403 17.4155 12.1676C17.4155 12.483 17.532 12.7216 17.7649 12.8835C17.9979 13.0426 18.2947 13.1222 18.6555 13.1222ZM24.5799 10.1136V14H23.3058V7.45455H24.5288V8.51989H24.6097C24.7603 8.1733 24.9961 7.89489 25.3171 7.68466C25.641 7.47443 26.0487 7.36932 26.5401 7.36932C26.9862 7.36932 27.3768 7.46307 27.712 7.65057C28.0472 7.83523 28.3072 8.1108 28.4918 8.47727C28.6765 8.84375 28.7688 9.29687 28.7688 9.83665V14H27.4947V9.99006C27.4947 9.51562 27.3711 9.14489 27.1239 8.87784C26.8768 8.60795 26.5373 8.47301 26.1055 8.47301C25.81 8.47301 25.5472 8.53693 25.3171 8.66477C25.0898 8.79261 24.9094 8.98011 24.7759 9.22727C24.6452 9.47159 24.5799 9.76705 24.5799 10.1136ZM33.2987 14.1321C32.6538 14.1321 32.0984 13.9943 31.6325 13.7188C31.1694 13.4403 30.8114 13.0497 30.5586 12.5469C30.3086 12.0412 30.1836 11.4489 30.1836 10.7699C30.1836 10.0994 30.3086 9.50852 30.5586 8.99716C30.8114 8.4858 31.1637 8.08665 31.6154 7.79972C32.07 7.51278 32.6012 7.36932 33.2092 7.36932C33.5785 7.36932 33.9364 7.4304 34.283 7.55256C34.6296 7.67472 34.9407 7.86648 35.2163 8.12784C35.4918 8.3892 35.7092 8.72869 35.8683 9.14631C36.0273 9.56108 36.1069 10.0653 36.1069 10.6591V11.1108H30.9038V10.1562H34.8583C34.8583 9.82102 34.7901 9.52415 34.6538 9.26562C34.5174 9.00426 34.3256 8.7983 34.0785 8.64773C33.8342 8.49716 33.5472 8.42188 33.2177 8.42188C32.8597 8.42188 32.5472 8.50994 32.2802 8.68608C32.016 8.85937 31.8114 9.08665 31.6665 9.3679C31.5245 9.64631 31.4535 9.94886 31.4535 10.2756V11.0213C31.4535 11.4588 31.5302 11.831 31.6836 12.1378C31.8398 12.4446 32.0572 12.679 32.3356 12.8409C32.614 13 32.9393 13.0795 33.3114 13.0795C33.5529 13.0795 33.7731 13.0455 33.9719 12.9773C34.1708 12.9062 34.3427 12.8011 34.4876 12.6619C34.6325 12.5227 34.7433 12.3509 34.82 12.1463L36.0259 12.3636C35.9293 12.7187 35.756 13.0298 35.506 13.2969C35.2589 13.5611 34.9478 13.767 34.5728 13.9148C34.2006 14.0597 33.7759 14.1321 33.2987 14.1321ZM38.7947 5.27273V14H37.5206V5.27273H38.7947ZM45.4137 9.05256L44.2589 9.2571C44.2106 9.10937 44.1339 8.96875 44.0288 8.83523C43.9265 8.7017 43.7873 8.59233 43.6112 8.5071C43.435 8.42187 43.2148 8.37926 42.9506 8.37926C42.5898 8.37926 42.2887 8.46023 42.0472 8.62216C41.8058 8.78125 41.685 8.98722 41.685 9.24006C41.685 9.45881 41.766 9.63494 41.9279 9.76847C42.0898 9.90199 42.3512 10.0114 42.712 10.0966L43.7518 10.3352C44.354 10.4744 44.8029 10.6889 45.0984 10.9787C45.3938 11.2685 45.5415 11.6449 45.5415 12.108C45.5415 12.5 45.4279 12.8494 45.2006 13.1562C44.9762 13.4602 44.6623 13.6989 44.2589 13.8722C43.8583 14.0455 43.3938 14.1321 42.8654 14.1321C42.1325 14.1321 41.5344 13.9759 41.0714 13.6634C40.6083 13.348 40.3242 12.9006 40.2191 12.321L41.4506 12.1335C41.5273 12.4545 41.685 12.6974 41.9237 12.8622C42.1623 13.0241 42.4734 13.1051 42.8569 13.1051C43.2745 13.1051 43.6083 13.0185 43.8583 12.8452C44.1083 12.669 44.2333 12.4545 44.2333 12.2017C44.2333 11.9972 44.1566 11.8253 44.0032 11.6861C43.8526 11.5469 43.6211 11.4418 43.3086 11.3707L42.2006 11.1278C41.5898 10.9886 41.1381 10.767 40.8455 10.4631C40.5558 10.1591 40.4109 9.77415 40.4109 9.30824C40.4109 8.92187 40.5188 8.58381 40.7347 8.29403C40.9506 8.00426 41.2489 7.77841 41.6296 7.61648C42.0103 7.4517 42.4464 7.36932 42.9379 7.36932C43.6452 7.36932 44.2021 7.52273 44.6083 7.82955C45.0146 8.13352 45.283 8.54119 45.4137 9.05256Z" fill="#333D4C"/>
</svg>
