<svg width="16" height="16" viewBox="0 0 16 16" fill="none" xmlns="http://www.w3.org/2000/svg">
<path fill-rule="evenodd" clip-rule="evenodd" d="M8.81922 1.27524C8.85128 0.954674 9.13714 0.72079 9.4577 0.752847C10.9287 0.89995 12.3196 1.5616 13.4121 2.65414C14.4306 3.67259 15.1661 5.0619 15.3137 6.61131C15.3442 6.93203 15.109 7.21678 14.7883 7.24732C14.4676 7.27787 14.1828 7.04264 14.1523 6.72192C14.0332 5.47134 13.4354 4.32732 12.5872 3.4791C11.6797 2.57165 10.5373 2.03329 9.34162 1.91372C9.02105 1.88167 8.78717 1.59581 8.81922 1.27524ZM1.84897 2.5741C1.81188 2.5874 1.76597 2.60385 1.71746 2.62002C1.66616 2.63712 1.62253 2.66871 1.47881 2.81244C1.43317 2.85807 1.40397 2.89833 1.35305 3.05109C1.34616 3.07176 1.33812 3.09203 1.32896 3.11179C1.32762 3.11825 1.32475 3.13372 1.32226 3.16109C1.31745 3.21408 1.31651 3.27628 1.31636 3.36235C1.57666 5.34203 2.21641 7.24199 3.28789 8.88073L3.29432 8.89079C4.24737 10.4157 5.58394 11.7522 7.10882 12.7053L7.11888 12.7117C8.77393 13.7939 10.6085 14.4894 12.5613 14.6833C12.7329 14.683 12.7837 14.6793 12.8819 14.6466C13.0346 14.5956 13.0749 14.5664 13.1205 14.5208C13.2642 14.3771 13.2958 14.3334 13.3129 14.2822C13.3217 14.256 13.3322 14.2304 13.3446 14.2057C13.3615 14.1719 13.3808 14.1244 13.3952 14.0715C13.4098 14.0181 13.4163 13.9705 13.4163 13.9333V11.9333C13.4163 11.777 13.3644 11.634 13.1837 11.3295C13.0978 11.2241 12.9825 11.1546 12.7741 11.1099C12.1154 11.0329 11.4094 10.8181 10.8152 10.62C10.766 10.6036 10.7192 10.5807 10.6761 10.552C10.6761 10.552 10.6755 10.5516 10.6741 10.551C10.6727 10.5503 10.6701 10.5492 10.6659 10.5479C10.6575 10.5453 10.6424 10.5419 10.6192 10.5403C10.5704 10.5371 10.4997 10.5429 10.4078 10.5659C10.3615 10.5774 10.314 10.5833 10.2663 10.5833C10.2377 10.5833 10.2153 10.5886 10.1845 10.6052C10.1462 10.6259 10.0921 10.6658 10.0121 10.7458L9.14548 11.6124C8.96079 11.7971 8.67586 11.8365 8.44798 11.7089C6.68744 10.723 5.20993 9.24551 4.22403 7.48497C4.09642 7.25709 4.13583 6.97216 4.32051 6.78748L5.14594 5.96204C5.26385 5.78354 5.33121 5.66857 5.36707 5.52514C5.39007 5.43315 5.37988 5.39244 5.30783 5.10443C5.30718 5.10182 5.30652 5.09918 5.30585 5.09653L5.30527 5.09477C5.11401 4.52109 4.90162 3.88401 4.82408 3.17119C4.7994 3.08107 4.76693 2.99227 4.72578 2.91456C4.67892 2.82604 4.62949 2.76816 4.58299 2.73328C4.5609 2.71672 4.54003 2.69861 4.52051 2.67909C4.44254 2.60113 4.26379 2.51661 4.06633 2.51661H2.06633C2.03736 2.51661 2.01184 2.52032 1.96729 2.53368C1.94126 2.54149 1.91189 2.55161 1.86878 2.56701C1.86251 2.56925 1.8559 2.57162 1.84897 2.5741ZM1.41808 1.4883C1.55902 1.43642 1.79393 1.34995 2.06633 1.34995H4.06633C4.52126 1.34995 4.99377 1.52119 5.31563 1.82514C5.72207 2.1479 5.89099 2.62679 5.96558 2.92514C5.97243 2.95257 5.97729 2.98045 5.9801 3.00858C6.03931 3.60068 6.21707 4.14086 6.41972 4.74882C6.42445 4.76298 6.42862 4.77732 6.43224 4.7918C6.438 4.81482 6.4445 4.83941 6.45139 4.86549C6.5099 5.08683 6.59692 5.41603 6.4989 5.8081C6.40748 6.17377 6.22586 6.44586 6.09735 6.63838C6.09318 6.64462 6.08907 6.65078 6.08502 6.65686C6.06371 6.68882 6.0393 6.7186 6.01213 6.74576L5.46505 7.29286C6.26185 8.57524 7.3577 9.6711 8.64009 10.4679L9.18717 9.92081C9.41649 9.69149 9.73512 9.44379 10.1903 9.4187C10.4922 9.35282 10.8885 9.33316 11.2454 9.53358C11.8236 9.72466 12.4156 9.89628 12.9307 9.95352C12.9475 9.95539 12.9642 9.95797 12.9807 9.96128C13.4114 10.0474 13.8236 10.2374 14.133 10.65C14.145 10.666 14.1562 10.6826 14.1665 10.6998C14.3716 11.0416 14.583 11.4279 14.583 11.9333V13.9333C14.583 14.2299 14.4941 14.5038 14.4054 14.6917C14.2908 15.0019 14.0842 15.2076 13.9628 15.3284C13.9568 15.3344 13.951 15.3402 13.9455 15.3458C13.7244 15.5668 13.498 15.6709 13.2508 15.7534C12.9607 15.85 12.7479 15.85 12.5465 15.85L12.533 15.8499C12.5142 15.8499 12.4955 15.849 12.4768 15.8472C10.3087 15.6374 8.28791 14.869 6.48543 13.6915C4.81412 12.6458 3.35384 11.1855 2.30816 9.5142C1.12165 7.69765 0.430374 5.61296 0.154457 3.47461C0.151263 3.44985 0.149661 3.42492 0.149661 3.39996C0.149661 3.39651 0.14966 3.39302 0.149659 3.38949C0.149643 3.29667 0.149622 3.17391 0.160386 3.05549C0.170228 2.9472 0.192099 2.79854 0.257056 2.65026C0.337877 2.41538 0.442359 2.19897 0.653848 1.98748C0.659413 1.98191 0.665183 1.97612 0.671161 1.97011C0.79724 1.8435 1.0156 1.6242 1.34853 1.51322C1.36809 1.5067 1.3914 1.49812 1.41808 1.4883ZM8.82766 3.88555C8.89084 3.56964 9.19815 3.36476 9.51406 3.42795C10.2983 3.5848 11.0008 3.97615 11.5455 4.5208C12.0901 5.06545 12.4815 5.76793 12.6383 6.55222C12.7015 6.86813 12.4966 7.17544 12.1807 7.23862C11.8648 7.30181 11.5575 7.09693 11.4943 6.78102C11.3845 6.23198 11.1092 5.73445 10.7205 5.34576C10.3318 4.95708 9.83431 4.68177 9.28526 4.57196C8.96935 4.50878 8.76447 4.20146 8.82766 3.88555Z" fill="#4E5562"/>
</svg>
