<svg width="16" height="14" viewBox="0 0 16 14" fill="none" xmlns="http://www.w3.org/2000/svg">
                        <path fill-rule="evenodd" clip-rule="evenodd" d="M7.31942 9.85047C7.54722 10.0783 7.54722 10.4476 7.31942 10.6754L4.49099 13.5039C4.26318 13.7317 3.89384 13.7317 3.66603 13.5039L0.837602 10.6754C0.609797 10.4476 0.609797 10.0783 0.837602 9.85047C1.06541 9.62266 1.43475 9.62266 1.66256 9.85047L4.07851 12.2664L6.49446 9.85047C6.72226 9.62266 7.09161 9.62266 7.31942 9.85047Z" fill="#4E5562"/>
                        <path fill-rule="evenodd" clip-rule="evenodd" d="M4.07851 13.6747C3.75634 13.6747 3.49518 13.4135 3.49518 13.0914L3.49518 1.15838C3.49518 0.836211 3.75634 0.575044 4.07851 0.575043C4.40068 0.575044 4.66184 0.83621 4.66184 1.15838L4.66184 13.0914C4.66184 13.4135 4.40067 13.6747 4.07851 13.6747Z" fill="#4E5562"/>
                        <path fill-rule="evenodd" clip-rule="evenodd" d="M15.1111 4.39928C15.3389 4.17148 15.3389 3.80213 15.1111 3.57432L12.2827 0.745897C12.0548 0.518091 11.6855 0.518091 11.4577 0.745897L8.62927 3.57432C8.40146 3.80213 8.40146 4.17148 8.62927 4.39928C8.85708 4.62709 9.22642 4.62709 9.45423 4.39928L11.8702 1.98333L14.2861 4.39928C14.5139 4.62709 14.8833 4.62709 15.1111 4.39928Z" fill="#4E5562"/>
                        <path fill-rule="evenodd" clip-rule="evenodd" d="M11.8702 0.575043C11.548 0.575043 11.2868 0.83621 11.2868 1.15838V13.0914C11.2868 13.4135 11.548 13.6747 11.8702 13.6747C12.1923 13.6747 12.4535 13.4135 12.4535 13.0914L12.4535 1.15838C12.4535 0.83621 12.1923 0.575043 11.8702 0.575043Z" fill="#4E5562"/>
                    </svg>