<svg width="14" height="25" viewBox="0 0 14 14" fill="none" xmlns="http://www.w3.org/2000/svg">
                        <path fill-rule="evenodd" clip-rule="evenodd" d="M6.33341 1.58332C3.71006 1.58332 1.58341 3.70997 1.58341 6.33332C1.58341 8.95668 3.71006 11.0833 6.33341 11.0833C8.95677 11.0833 11.0834 8.95668 11.0834 6.33332C11.0834 3.70997 8.95677 1.58332 6.33341 1.58332ZM0.416748 6.33332C0.416748 3.06564 3.06573 0.416656 6.33341 0.416656C9.6011 0.416656 12.2501 3.06564 12.2501 6.33332C12.2501 9.60101 9.6011 12.25 6.33341 12.25C3.06573 12.25 0.416748 9.60101 0.416748 6.33332Z" fill="#4E5562"/>
                        <path fill-rule="evenodd" clip-rule="evenodd" d="M9.6876 9.68751C9.91541 9.4597 10.2848 9.4597 10.5126 9.68751L13.4126 12.5875C13.6404 12.8153 13.6404 13.1847 13.4126 13.4125C13.1848 13.6403 12.8154 13.6403 12.5876 13.4125L9.6876 10.5125C9.4598 10.2847 9.4598 9.91532 9.6876 9.68751Z" fill="#4E5562"/>
                    </svg>