<svg width="16" height="16" viewBox="0 0 16 16" fill="none" xmlns="http://www.w3.org/2000/svg">
<path fill-rule="evenodd" clip-rule="evenodd" d="M11.9998 1.91667C11.2174 1.91667 10.5832 2.55093 10.5832 3.33333C10.5832 4.11574 11.2174 4.75 11.9998 4.75C12.7822 4.75 13.4165 4.11574 13.4165 3.33333C13.4165 2.55093 12.7822 1.91667 11.9998 1.91667ZM9.4165 3.33333C9.4165 1.9066 10.5731 0.75 11.9998 0.75C13.4266 0.75 14.5832 1.9066 14.5832 3.33333C14.5832 4.76007 13.4266 5.91667 11.9998 5.91667C10.5731 5.91667 9.4165 4.76007 9.4165 3.33333Z" fill="#333D4C"/>
<path fill-rule="evenodd" clip-rule="evenodd" d="M3.99984 6.58333C3.21743 6.58333 2.58317 7.2176 2.58317 8C2.58317 8.7824 3.21743 9.41667 3.99984 9.41667C4.78224 9.41667 5.4165 8.7824 5.4165 8C5.4165 7.2176 4.78224 6.58333 3.99984 6.58333ZM1.4165 8C1.4165 6.57326 2.5731 5.41667 3.99984 5.41667C5.42657 5.41667 6.58317 6.57326 6.58317 8C6.58317 9.42674 5.42657 10.5833 3.99984 10.5833C2.5731 10.5833 1.4165 9.42674 1.4165 8Z" fill="#333D4C"/>
<path fill-rule="evenodd" clip-rule="evenodd" d="M11.9998 11.25C11.2174 11.25 10.5832 11.8843 10.5832 12.6667C10.5832 13.4491 11.2174 14.0833 11.9998 14.0833C12.7822 14.0833 13.4165 13.4491 13.4165 12.6667C13.4165 11.8843 12.7822 11.25 11.9998 11.25ZM9.4165 12.6667C9.4165 11.2399 10.5731 10.0833 11.9998 10.0833C13.4266 10.0833 14.5832 11.2399 14.5832 12.6667C14.5832 14.0934 13.4266 15.25 11.9998 15.25C10.5731 15.25 9.4165 14.0934 9.4165 12.6667Z" fill="#333D4C"/>
<path fill-rule="evenodd" clip-rule="evenodd" d="M5.2225 8.71297C5.3847 8.43462 5.74185 8.34046 6.0202 8.50266L10.5735 11.156C10.8519 11.3182 10.946 11.6753 10.7838 11.9537C10.6216 12.232 10.2645 12.3262 9.98614 12.164L5.43281 9.51067C5.15445 9.34847 5.0603 8.99133 5.2225 8.71297Z" fill="#333D4C"/>
<path fill-rule="evenodd" clip-rule="evenodd" d="M10.777 4.04598C10.9394 4.32423 10.8454 4.68144 10.5672 4.84382L6.02052 7.49715C5.74227 7.65953 5.38507 7.5656 5.22269 7.28735C5.06031 7.0091 5.15424 6.6519 5.43249 6.48952L9.97915 3.83618C10.2574 3.6738 10.6146 3.76773 10.777 4.04598Z" fill="#333D4C"/>
</svg>
