<svg width="20" height="18" viewBox="0 0 20 18" fill="none" xmlns="http://www.w3.org/2000/svg">
<path d="M10.848 0.71448C10.7076 0.43006 10.418 0.25 10.1008 0.25C9.78359 0.25 9.49391 0.43006 9.35352 0.71448L6.97222 5.53872L1.64692 6.3171C1.33312 6.36296 1.07255 6.58297 0.974735 6.88464C0.87692 7.18631 0.958814 7.51736 1.186 7.73863L5.03867 11.4911L4.12943 16.7925C4.07581 17.1051 4.20435 17.4211 4.46099 17.6075C4.71764 17.794 5.05789 17.8185 5.33865 17.6709L10.1008 15.1665L14.8629 17.6709C15.1437 17.8185 15.4839 17.794 15.7406 17.6075C15.9972 17.4211 16.1257 17.1051 16.0721 16.7925L15.1629 11.4911L19.0156 7.73863C19.2427 7.51736 19.3246 7.18631 19.2268 6.88464C19.129 6.58297 18.8684 6.36296 18.5546 6.3171L13.2293 5.53872L10.848 0.71448Z" fill="#FC9231"/>
</svg>
